<?xml version="1.0" encoding="utf-8"?>
<!-- Generator: Adobe Illustrator 24.3.0, SVG Export Plug-In . SVG Version: 6.00 Build 0)  -->
<svg version="1.1" id="Layer_1" xmlns="http://www.w3.org/2000/svg" xmlns:xlink="http://www.w3.org/1999/xlink" x="0px" y="0px"
	 viewBox="0 0 1280 960" style="enable-background:new 0 0 1280 960;" xml:space="preserve">
<style type="text/css">
	.st0{fill:#2B2B2B;}
	.st1{fill:url(#SVGID_1_);}
	.st2{fill:url(#SVGID_2_);}
	.st3{fill:#C3B5A9;}
	.st4{fill:#ABA29B;}
	.st5{fill:#CB9470;}
	.st6{fill:#BA8567;}
	.st7{fill:url(#SVGID_3_);}
	.st8{fill:#3D2A1A;}
	.st9{fill:#584435;}
	.st10{fill:#43362D;}
	.st11{fill:#CBBFAF;}
	.st12{fill:#81222A;}
	.st13{fill:#AC253C;}
	.st14{fill:#AD3C4C;}
	.st15{fill:#7B2432;}
	.st16{fill:#8E3947;}
	.st17{fill:#560F19;}
	.st18{fill:#54111D;}
	.st19{fill:#640813;}
	.st20{fill:#82313B;}
	.st21{fill:#471C17;}
	.st22{fill:#A4B863;}
	.st23{fill:#1B2A16;}
	.st24{fill:#3C3F19;}
	.st25{fill:#7A933B;}
	.st26{fill:#6E8638;}
	.st27{fill:#6B7942;}
	.st28{fill:#5A7134;}
	.st29{fill:#494230;}
	.st30{fill:#98A252;}
	.st31{fill:#818C3C;}
	.st32{fill:url(#SVGID_4_);}
	.st33{fill:#7D9980;}
	.st34{fill:#B2C2A6;}
	.st35{fill:#92A98A;}
	.st36{fill:#BBC6B0;}
	.st37{fill:#D0DFCA;}
</style>
<rect x="0" class="st0" width="1280" height="960"/>
<radialGradient id="SVGID_1_" cx="124.675" cy="590.8784" r="134.7171" gradientUnits="userSpaceOnUse">
	<stop  offset="0" style="stop-color:#545454"/>
	<stop  offset="0.5023" style="stop-color:#2B2B2B"/>
</radialGradient>
<circle class="st1" cx="124.67" cy="590.88" r="67.36"/>
<radialGradient id="SVGID_2_" cx="132.0216" cy="138.3403" r="131.6305" gradientUnits="userSpaceOnUse">
	<stop  offset="0" style="stop-color:#545454"/>
	<stop  offset="0.5023" style="stop-color:#2B2B2B"/>
</radialGradient>
<circle class="st2" cx="132.02" cy="138.34" r="65.82"/>
<g>
	<path class="st3" d="M70.28,114.92c-0.01-10.39-0.03-20.77-0.04-31.16c3.12,1.59,9.52,4.32,18.03,4.27
		c8.2-0.05,14.38-2.66,17.48-4.23c0.01,10.37,0.02,20.74,0.03,31.11c-1.43,1.32-7.76,6.89-17.55,6.96
		C78.18,121.95,71.67,116.2,70.28,114.92z"/>
	<path class="st4" d="M70.24,83.76c0.17,0.08,0.42,0.2,0.71,0.35c0.8,0.38,1.47,0.68,1.72,0.8c1.43,0.63,3.19,1.19,3.4,1.25
		c3.12,0.99,5.77,1.38,6.36,1.47c2.35,0.34,4.35,0.41,5.83,0.4c0.68,0,5.93-0.07,11.39-1.76c2.2-0.68,4.01-1.46,5.35-2.1
		c0.25-0.12,0.5-0.24,0.74-0.37c-0.26-0.12-0.53-0.23-0.79-0.35c-1.31-0.49-3.14-1.11-5.37-1.65c-4.84-1.17-8.64-1.25-11.23-1.3
		c-3.63-0.06-7.55-0.1-12.47,1.2c-2.1,0.56-3.81,1.2-5.01,1.71C70.67,83.54,70.45,83.65,70.24,83.76z"/>
</g>
<path class="st5" d="M125.79,131c0.99-0.76,2.6,0.72,3.6-0.08c0.33-0.26,0.19-0.45,0.86-1.91c0.47-1.01,0.7-1.52,1.01-1.68
	c0.94-0.48,2.65,0.43,3.54,1.63c0.67,0.89,0.46,1.38,1.05,1.68c0.94,0.48,2.02-0.48,2.82,0.14c0.24,0.18,0.17,0.28,0.43,0.62
	c0.85,1.1,2.78,1.66,3.64,1.01c0.44-0.34,0.27-0.74,0.91-1.29c0.43-0.37,0.6-0.26,1.05-0.62c0.78-0.62,0.62-1.21,1.1-1.39
	c0.7-0.26,1.28,0.86,2.3,0.77c0.44-0.04,0.4-0.26,1.44-1.01c1.71-1.23,3.09-1.54,3.43-1.58c0.07-0.01,0.22-0.03,0.52-0.08
	c0.62-0.1,0.67-0.11,0.75-0.14c0.07-0.03,0.62-0.25,0.69-0.67c0.07-0.4-0.35-0.63-0.24-1.03c0.04-0.15,0.15-0.25,0.22-0.32
	c0.45-0.42,1.41-0.54,2.21-0.18c0.8,0.36,0.87,1.05,1.52,1.08c0.29,0.01,0.35-0.11,0.79-0.21c0.65-0.15,1.17-0.03,1.64,0.06
	c1.93,0.38,2.9,0.57,3.58,0.19c0.47-0.26,0.21-0.4,1.11-1.21c0.47-0.43,0.96-0.72,1.94-1.32c0.2-0.12,0.43-0.26,0.77-0.34
	c0.34-0.08,0.5-0.04,0.85-0.06c0.45-0.03,1.26-0.17,1.3-0.4c0.04-0.25-0.84-0.65-1.62-0.87c-1.86-0.54-2.54,0.06-5.56-0.04
	c-0.99-0.03-1.36-0.11-2.04,0.07c-1,0.27-1.07,0.67-2.26,1.15c-0.81,0.33-1.87,0.75-2.84,0.35c-0.58-0.24-0.59-0.55-1.21-0.71
	c-0.58-0.15-0.75,0.07-1.79,0.15c-0.9,0.07-1.61,0.12-2.07-0.3c-0.35-0.32-0.22-0.61-0.61-0.94c-0.43-0.37-0.97-0.34-1.42-0.35
	c-1.51-0.05-1.38-0.51-2.73-0.61c-1.14-0.08-1.27,0.19-2.08-0.05c-0.51-0.15-0.5-0.27-1.44-0.65c-1.05-0.43-1.41-0.42-1.48-0.68
	c-0.13-0.48,1.02-0.84,1.02-1.59c0-0.6-0.72-1.05-1.14-1.31c-0.75-0.47-2.08-0.89-2.99-0.51c-0.09,0.04-0.31,0.14-0.59,0.11
	c-0.46-0.04-0.89-0.41-0.84-0.6c0.06-0.25,0.83,0.01,1.29-0.46c0.32-0.33,0.42-0.94,0.2-1.17c-0.27-0.28-0.8,0.18-1.78,0
	c-0.1-0.02-0.92-0.17-0.98-0.54c-0.05-0.3,0.47-0.45,0.49-0.83c0.02-0.51-0.89-0.93-1-0.98c-0.93-0.41-1.27,0.05-2.2-0.29
	c-0.89-0.33-0.88-0.88-1.56-0.9c-0.49-0.02-0.56,0.27-1.56,0.46c-0.54,0.11-0.95,0.18-1.2-0.05c-0.26-0.24-0.13-0.62-0.42-0.78
	c-0.23-0.13-0.4,0.06-0.68-0.07c-0.26-0.12-0.25-0.33-0.46-0.56c-0.41-0.45-1.28-0.58-1.61-0.27c-0.25,0.24-0.04,0.59-0.32,0.85
	c-0.09,0.09-0.27,0.19-1,0.12c-0.97-0.08-1.06-0.29-1.71-0.29c-0.66,0-0.71,0.21-1.22,0.12c-0.12-0.02-0.8-0.13-1.2-0.66
	c-0.43-0.57-0.08-1.01-0.49-1.73c-0.08-0.14-0.41-0.72-0.98-0.88c-0.89-0.25-1.31,0.81-2.42,0.81c-0.82,0-0.85-0.59-2.44-1.29
	c-0.11-0.05-0.08-0.03-2.25-0.71c-2.09-0.65-2.21-0.69-2.47-0.83c-0.79-0.42-0.95-0.61-1.37-0.61c-0.79,0.01-1.42,0.81-1.83,1.49
	c0,2.38,0,4.75,0.01,7.13c0,0.86,0,1.71,0,2.57c-0.44,0.4-1.03,0.91-1.74,1.46c-0.64,0.49-1.92,1.43-3.68,2.37
	c-2.32,1.24-4.29,1.86-5.11,2.1c-2.29,0.67-4.23,0.89-5.45,0.97c-1.36,0.09-2.53,0.07-3.44,0.01c-1.07-0.07-2.33-0.22-3.73-0.52
	c-0.59-0.13-1.68-0.38-3-0.84c-0.55-0.19-1.63-0.58-2.94-1.22c-1.32-0.64-2.34-1.27-2.99-1.69c-0.98-0.64-2.16-1.5-3.41-2.63
	c-0.18,0.23-0.43,0.59-0.67,1.06c-0.34,0.66-0.33,0.91-0.51,1.29c-0.46,0.98-1.21,0.82-2.32,1.9c-0.19,0.19-0.59,0.79-1.39,1.98
	c-0.9,1.35-0.65,1.05-1.37,2.12c-1,1.5-1.35,1.86-1.22,2.39c0.12,0.49,0.52,0.61,0.54,1.18c0.02,0.56-0.36,0.98-0.43,1.06
	c-0.44,0.5-0.89,0.41-1.73,0.76c-0.9,0.38-1.82,1.07-1.73,1.36c0.1,0.29,1.24,0.24,2.06,0.07c0.95-0.2,1.27-0.53,1.76-0.33
	c0.58,0.23,0.77,0.95,0.8,1.06c0.2,0.8-0.22,1.7-1.03,2.32c2.27-0.48,3.12-0.32,3.32,0.07c0.33,0.64-1.13,1.93-0.76,2.39
	c0.21,0.26,0.88,0.13,1.36,0.03c0.75-0.15,1.05-0.41,1.26-0.26c0.31,0.24-0.17,1.03,0.1,1.26c0.43,0.36,2.02-1.23,2.56-0.83
	c0.16,0.12,0.09,0.33,0.17,0.86c0.03,0.22,0.22,1.47,0.83,1.93c0.88,0.66,2.44-0.48,2.76-0.03c0.29,0.4-0.93,1.39-0.63,1.99
	c0.35,0.72,2.6-0.1,2.92,0.56c0.18,0.37-0.32,1.04-0.73,1.39c-0.82,0.7-1.62,0.44-1.79,0.9c-0.18,0.48,0.49,1.33,1.29,1.63
	c0.44,0.16,0.92,0.17,1.93-0.13c2.39-0.71,3.08-1.74,3.78-1.39c0.57,0.28,0.84,1.31,0.56,1.99c-0.44,1.09-2.11,0.99-2.16,1.63
	c-0.04,0.54,1.1,1.26,1.73,1c0.51-0.22,0.32-0.94,1-1.39c0.31-0.21,0.69-0.23,1.43-0.27c0.94-0.05,1.43-0.07,1.56,0.17
	c0.28,0.53-1.69,1.57-1.46,2.82c0.07,0.38,0.34,0.78,0.7,0.9c0.35,0.12,0.6-0.11,1.36-0.37c0.32-0.11,1.41-0.47,1.56-0.23
	c0.22,0.34-1.78,1.65-1.49,2.32c0.23,0.53,1.63,0.03,2.05,0.68c0.55,0.85-1.05,2.9-1.34,3.28c-0.91,1.17-1.48,1.35-1.56,2.08
	c-0.04,0.39,0.07,0.77,1.12,2.16c2.44,3.23,3.6,3.45,3.95,3.5c0.16,0.02,0.98,0.14,1.19-0.22c0.23-0.39-0.52-0.93-0.82-2.01
	c-0.26-0.93-0.2-2.33,0.52-2.76c0.79-0.46,2.15,0.38,2.83,1.27c0.68,0.89,1,2.24,0.45,3.5c-0.73,1.66-2.47,1.99-2.61,2.01
	c0.8,0.93,1.45,1.14,1.94,1.12c0.96-0.05,1.31-1.02,2.23-0.97c0.59,0.03,0.99,0.47,1.64,1.19c0.82,0.91,1.76,1.95,1.49,3.13
	c-0.21,0.93-1.06,1.46-1.37,1.64c-0.61,0.38-1.1,0.41-2.43,0.59c-3.11,0.41-3.36,0.59-3.5,0.82c-0.51,0.84,0.39,2.62,1.19,2.68
	c0.65,0.05,0.8-1.04,1.94-1.34c0.84-0.22,1.1,0.29,1.94,0.07c1.22-0.31,1.48-1.6,2.01-1.49c0.57,0.12,0.71,1.75,0.82,3.05
	c0.21,2.52-0.2,2.8,0.22,3.43c1.04,1.55,4.2,0.8,4.47,1.86c0.13,0.54-0.63,0.93-0.45,1.34c0.33,0.72,3.17,0.51,3.43-0.37
	c0.16-0.54-0.81-0.81-1.41-2.08c-0.82-1.73,0.3-2.6-0.37-4.02c-0.89-1.87-3.5-1.74-3.57-3.05c-0.03-0.45,0.31-0.87,0.97-1.71
	c0.46-0.58,0.89-1.13,1.64-1.49c1.04-0.5,2.48-0.53,2.76,0c0.23,0.45-0.55,0.95-0.33,1.54c0.13,0.34,0.49,0.44,2.14,1.03
	c1.39,0.49,1.59,0.58,1.63,0.77c0.09,0.49-1.1,0.77-1.89,2.14c-0.23,0.4-0.56,0.97-0.34,1.29c0.24,0.35,0.95,0.11,2.92-0.17
	c2.07-0.3,2.36-0.19,2.57-0.51c0.52-0.78-0.89-1.81-0.77-3.95c0.03-0.52,0.08-1.59,0.86-2.14c0.93-0.67,2.51-0.29,2.66,0.26
	c0.13,0.49-0.97,0.81-1.01,1.68c-0.04,0.83,0.9,1.92,2.03,1.89c0.7-0.02,1.41-0.47,1.66-1.06c0.13-0.31,0.1-0.6,0.22-0.62
	c0.23-0.05,0.62,0.93,0.7,1.12c0.67,1.66,1.7,3.16,2.37,4.82c1.49,3.65,6.06,7.38,9.43,10.13c2.26,1.84,4.62,3.77,6.35,4.48
	c0.19,0.08,0.72,0.29,1.27,0.75c1.03,0.88,1.13,1.81,1.61,2.44c0.52,0.69,1.73,1.33,4.82,0.91c0.1,0.31,0.49,1.41,1.61,2.03
	c1.16,0.64,2.84,0.6,3.21-0.07c0.4-0.72-0.61-2.25-2.51-3.77c-0.08-0.47-0.23-0.85-0.4-1.15c-1.36-2.46-5.16-2.42-5.54-2.41
	c-0.02-0.58-0.05-1.16-0.07-1.75c0.65,0.18,2.11,0.48,3.84,0c2.14-0.59,3.37-2,3.77-2.51c1.33,0.34,1.86,0.14,2.1-0.14
	c0.44-0.51-0.17-1.26,0.28-2.1c0.5-0.93,1.71-0.84,1.75-1.33c0.04-0.52-1.33-1.11-2.44-1.4c-2.17-0.55-2.91,0.17-4.33-0.56
	c-0.9-0.46-0.7-0.8-1.96-1.61c-0.87-0.56-2.66-1.48-3.14-0.98c-0.39,0.41,0.06,1.77,0.91,2.58c0.91,0.87,1.66,0.55,2.51,1.47
	c0.64,0.69,1.06,1.79,0.7,2.24c-0.3,0.37-0.93,0.03-2.24,0c-2.16-0.04-2.63,0.85-3.7,0.49c-1.06-0.36-1.13-1.4-2.24-3.07
	c-0.63-0.95-1.68-2.24-3.49-3.49c0.49-0.33,1.18-0.89,1.82-1.75c0.68-0.91,1.01-1.79,1.19-2.37c0.22,0.74,0.79,1.28,1.47,1.4
	c0.83,0.15,1.45-0.41,1.54-0.49c1.05-0.97,0.76-3.05,0-3.42c-0.48-0.24-1.06,0.28-1.47-0.07c-0.27-0.23-0.11-0.52-0.35-0.91
	c-0.35-0.57-1.14-0.68-1.75-0.77c-1.2-0.17-1.46,0.22-2.24-0.07c-0.45-0.17-0.72-0.44-1.26-0.98c-1.01-1.02-0.88-1.43-1.61-1.96
	c-0.92-0.67-1.74-0.46-1.82-0.84c-0.08-0.41,0.81-1.12,1.82-1.33c1.61-0.33,2.64,0.82,3.35,0.28c0.57-0.43,0.04-1.25,0.63-1.82
	c0.87-0.84,2.63,0.39,3.49-0.49c0.33-0.34,0.43-0.89,0.28-1.26c-0.34-0.8-1.94-0.88-2.86-0.77c-0.88,0.11-0.98,0.38-1.96,0.42
	c-0.45,0.02-0.54-0.04-1.61-0.07c-0.72-0.02-1.08-0.03-1.4,0c-0.78,0.08-0.93,0.26-1.89,0.49c-0.99,0.24-1.77,0.27-1.96,0.28
	c-1.19,0.04-2.06-0.17-2.24-0.21c-0.55-0.14-0.92-0.29-1.54-0.56c-0.47-0.2-1.19-0.51-2.03-1.05c-0.73-0.46-0.71-0.56-1.26-0.84
	c-0.45-0.22-0.68-0.26-0.77-0.49c-0.15-0.37,0.17-0.98,0.63-1.19c0.34-0.15,0.54,0.01,1.4,0.14c0.87,0.13,1.46,0.22,1.89-0.07
	c0.13-0.09,0.32-0.27,0.56-1.19c0.34-1.3,0.61-2.33,0.14-2.72c-0.45-0.38-1,0.3-2.17,0.07c-0.79-0.16-1.31-0.62-2.03-1.26
	c-0.47-0.42-1.28-1.14-1.12-1.47c0.18-0.36,1.26,0.3,2.37-0.21c0.88-0.4,1.58-1.43,1.4-2.17c-0.12-0.46-0.49-0.45-0.7-1.05
	c-0.25-0.73,0.07-1.44,0.14-1.61c0.37-0.83,1.09-1.19,1.36-1.33c0.58-0.29,0.7-0.14,1.43-0.42c0.61-0.23,1.57-0.6,1.68-1.26
	c0.11-0.67-0.68-1.48-1.47-1.75c-0.6-0.2-0.86,0.04-1.89-0.21c-0.58-0.14-1-0.25-1.12-0.56c-0.14-0.38,0.35-0.6,0.56-1.47
	c0.04-0.19,0.22-0.95-0.14-1.61c-0.15-0.28-0.24-0.24-0.63-0.7c-0.51-0.59-0.83-0.98-0.77-1.33c0.08-0.47,0.76-0.4,1.54-1.05
	c0.55-0.45,0.79-0.96,1.19-1.82C125.64,131.79,125.29,131.38,125.79,131z"/>
<path class="st5" d="M133.3,147.89c0.95-0.74,1.48-0.11,3.35-0.92c1.09-0.47,2.07-0.89,2.7-1.89c0.35-0.55,0.45-1.06,0.92-1.19
	c0.47-0.13,0.66,0.31,1.46,0.49c1.04,0.22,2.02-0.25,2.27-0.38c0.81-0.4,0.83-0.76,1.35-0.81c0.89-0.09,1.93,0.89,1.78,1.4
	c-0.08,0.27-0.56,0.22-2.48,0.49c-1.91,0.26-2.38,0.43-2.48,0.76c-0.12,0.39,0.42,0.6,0.38,1.19c-0.06,0.79-1.12,1.36-1.73,1.57
	c-0.52,0.18-0.99,0.18-1.3,0.16c0.41,0.48,0.75,0.98,0.59,1.24c-0.34,0.58-2.75-0.43-3.08,0.16c-0.21,0.38,0.73,0.97,0.54,1.57
	c-0.26,0.8-2.39,1.05-2.7,0.49c-0.22-0.4,0.59-1.06,0.38-1.35c-0.32-0.44-2.31,1-2.97,0.43C131.71,150.8,132.09,148.83,133.3,147.89
	z"/>
<path class="st5" d="M147.28,149.94c2.1,0.07,2.82-1.43,4.32-1.08c1.14,0.27,1.01,1.2,2.37,1.94c2.03,1.1,5.05,0.5,5.4-0.59
	c0.22-0.68-0.54-1.76-1.46-2.1c-1.3-0.49-2.1,0.78-3.4,0.38c-1.4-0.43-1.13-2.11-2.54-2.64c-0.74-0.28-1.91,0.2-4.21,1.19
	c-2.98,1.27-3.03,1.64-3.02,1.78C144.78,149.37,146.09,149.9,147.28,149.94z"/>
<path class="st5" d="M143.34,154.52c1.11-0.02,2.61,0.61,2.81,1.73c0.1,0.57-0.15,1.2-0.59,1.57c-0.74,0.61-1.94,0.39-2.54-0.16
	c-0.5-0.46-0.47-1.04-0.81-1.08c-0.41-0.04-0.53,0.78-1.19,0.97c-0.69,0.2-1.67-0.41-1.67-0.92c0-0.12,0.05-0.37,1.57-1.13
	C142.18,154.85,142.81,154.53,143.34,154.52z"/>
<path class="st5" d="M145.03,142.22c0.21-0.55-0.06-1.26-0.5-1.46c-0.46-0.22-0.95,0.17-1.08,0c-0.17-0.23,0.73-0.85,0.58-1.39
	c-0.09-0.31-0.68-0.48-1.87-0.79c-1.14-0.3-1.5-0.29-1.83-0.13c-0.38,0.17-0.68,0.51-0.62,0.66c0.1,0.21,0.97-0.19,1.2,0.12
	c0.2,0.26-0.31,0.73-0.5,1.85c-0.08,0.46-0.12,0.69,0,0.93c0.17,0.33,0.51,0.38,1.97,0.69c1.32,0.28,1.67,0.37,2.08,0.15
	C144.55,142.79,144.89,142.61,145.03,142.22z"/>
<path class="st5" d="M149.47,142.38c-0.07-0.42,3-1.47,3.28-0.96c0.15,0.27-0.59,0.82-0.42,1.08c0.17,0.27,1.02-0.26,2.16-0.15
	c1.04,0.09,2.15,0.69,2.12,1.16c-0.02,0.41-0.95,0.85-1.7,0.69c-0.59-0.13-0.59-0.53-1.12-0.66c-0.79-0.19-1.17,0.6-2.58,0.93
	c-0.8,0.18-1.63,0.14-1.7-0.08c-0.04-0.12,0.16-0.21,0.46-0.66c0.23-0.35,0.42-0.62,0.35-0.85
	C150.2,142.51,149.5,142.57,149.47,142.38z"/>
<path class="st5" d="M154.98,135.36c-0.75,0.69-1.82,0.63-2.54,0.58c-0.5-0.03-1.22-0.09-1.97-0.54c-0.65-0.39-1.29-1.07-1.16-1.31
	c0.11-0.2,0.63,0.04,1.73,0.08c0.78,0.03,0.82-0.08,1.81-0.12c1.15-0.04,2.44-0.09,2.62,0.39
	C155.61,134.78,155.09,135.26,154.98,135.36z"/>
<path class="st5" d="M162.15,121.02c0.13-0.19,0.28-0.58,0.12-0.81c-0.45-0.63-2.62,0.8-3.51-0.04c-0.28-0.27-0.43-0.76-0.46-1.12
	c-0.05-0.61,0.24-0.95,0.04-1.2c-0.22-0.27-0.67,0.02-1.04-0.27c-0.37-0.29-0.14-0.73-0.42-0.96c-0.46-0.38-1.28,0.64-2.62,0.62
	c-1.01-0.01-1.13-0.6-2.39-0.62c-0.83-0.01-0.85,0.24-1.5,0.15c-1.11-0.14-1.23-0.89-2.2-0.96c-0.58-0.04-1.38,0.16-1.81,0.81
	c-0.31,0.46-0.46,1.18-0.15,1.7c0.24,0.4,0.57,0.37,2.39,0.93c1.25,0.38,1.32,0.46,1.66,0.42c0.97-0.12,1.06-0.89,2-1.12
	c1.12-0.27,2.49,0.47,2.54,1.12c0.04,0.51-0.74,0.69-0.69,1.16c0.06,0.71,1.96,1.31,3.62,1.23c0.98-0.05,0.8-0.28,2.39-0.46
	C161.14,121.48,161.82,121.51,162.15,121.02z"/>
<path class="st5" d="M137.66,107.93c-0.56,0.35-0.79,1.5-0.33,2.05c0.52,0.62,1.49-0.04,4.43,0c1.09,0.02,1.35,0.11,1.86-0.1
	c1.42-0.58,2.23-2.49,1.81-2.95c-0.2-0.22-0.56,0.02-2.81,0.62c-2.45,0.65-2.97,0.61-3.24,0.57
	C138.46,108.01,138.08,107.68,137.66,107.93z"/>
<path class="st5" d="M159.97,115.85c1.31,0.67,1.98,1.01,2.43,1.14c1.37,0.39,3.02,0.34,3.15-0.1c0.11-0.37-0.87-1.02-1.53-1.33
	c-1.08-0.52-1.61-0.27-2.24-0.86c-0.55-0.52-0.33-0.89-0.81-1.19c-0.64-0.41-1.15,0.19-2.67,0.19c-1.12,0-1.34-0.32-2.1-0.1
	c-0.82,0.24-1.48,0.9-1.38,1.14c0.13,0.32,1.39-0.39,3.05,0.05C158.28,114.91,158.24,114.96,159.97,115.85z"/>
<path class="st5" d="M108.39,189.48c0.08-0.56-0.41-0.76-0.96-1.86c-0.38-0.77-0.8-1.62-0.48-2.15c0.46-0.74,2.34-0.7,2.91,0.1
	c0.32,0.45-0.03,0.77,0.29,1.48c0.43,0.97,1.54,1.39,1.77,1.48c0.89,0.34,1.45,0.16,1.58,0.48c0.13,0.33-0.32,0.9-0.81,1.19
	c-0.74,0.43-1.17,0.01-1.77,0.38c-0.73,0.46-0.4,1.29-1.15,1.81c-0.52,0.36-1.37,0.44-1.91,0c-0.42-0.34-0.58-0.94-0.48-1.43
	C107.55,190.17,108.3,190.14,108.39,189.48z"/>
<path class="st5" d="M115.94,187.47c1.5,0.78,2.64,0.18,3.01,0.86c0.39,0.71-0.68,1.68-0.29,2.2c0.4,0.52,1.6-0.34,2.48,0.24
	c0.75,0.49,1.17,1.93,0.48,2.91c-0.65,0.92-2.05,1.14-2.58,0.67c-0.49-0.44,0.07-1.22-0.53-2.01c-0.36-0.48-0.94-0.67-1.53-0.86
	c-1.01-0.33-1.26-0.08-1.58-0.38c-0.58-0.57,0.2-1.52-0.38-2.58c-0.11-0.2-0.55-0.55-1.43-1.24c-1.1-0.86-1.4-1.01-1.58-1.48
	c-0.23-0.62-0.09-1.42,0.24-1.53c0.3-0.1,0.63,0.44,1.62,1.43C114.85,186.67,115.33,187.16,115.94,187.47z"/>
<path class="st5" d="M69.14,154.86c-0.15,1.16-1.44,1.85-1.73,2.01c-0.92,0.49-2.55,0.92-3.04,0.28c-0.37-0.48,0.06-1.37,0.75-2.8
	c0.52-1.09,0.73-1.18,1.5-2.57c1.03-1.85,0.9-2.11,1.5-2.66c1.09-1.02,2.83-1.38,3.22-0.89c0.26,0.33-0.04,1.06-0.37,1.5
	c-0.69,0.88-1.53,0.52-2.01,1.26c-0.37,0.56-0.23,1.33,0,2.71C69.09,154.47,69.19,154.51,69.14,154.86z"/>
<path class="st5" d="M71.73,157.9c-0.77-0.05-1.37,1.02-2.39,2.82c-1.15,2.03-1.23,2.94-1.23,3.5c0,0.42,0.02,1.49,0.55,1.72
	c0.57,0.24,1.56-0.55,2.08-1.41c0.79-1.3,0.18-2.23,0.94-2.91c0.81-0.73,2.04-0.12,2.31-0.71c0.21-0.45-0.35-1.13-0.92-1.84
	C72.46,158.3,72.16,157.93,71.73,157.9z"/>
<path class="st6" d="M105.77,110.96c0.97,0.8,1.78,0.98,2.34,1c1.04,0.03,1.51-0.49,2.22-0.15c0.61,0.29,0.99,1.02,1.09,1.62
	c0.12,0.77-0.25,1.14,0,1.43c0.09,0.11,0.33,0.27,1.96-0.08c1.52-0.32,1.8-0.57,2.29-0.38c0.8,0.31,1.11,1.34,1.13,1.39
	c0.2,0.69-0.1,1,0.19,1.62c0.27,0.58,0.68,0.6,0.68,0.94c0,0.67-1.58,1.02-1.5,1.39c0.06,0.3,1.15,0.33,1.35,0.34
	c1.27,0.04,1.49-0.36,2.33-0.23c0.09,0.01,1.35,0.23,1.84,1.2c0.23,0.44,0.23,0.9,0.23,1.43c0,0.42,0,0.8-0.15,1.2
	c-0.17,0.45-0.42,0.65-1.66,1.69c-0.84,0.71-1.26,1.07-1.24,1.39c0.02,0.4,0.42,0.42,0.68,1.02c0.16,0.37,0.06,0.51,0.04,1.66
	c-0.03,1.23,0.07,1.54-0.19,1.81c-0.28,0.28-0.67,0.23-1.05,0.26c-1.05,0.09-1.84,0.94-3.42,2.63c-0.31,0.33-1.15,1.25-2.11,2.63
	c-0.55,0.79-0.9,1.4-1.47,2.37c-1.69,2.92-1.75,3.52-2.63,3.99c-0.54,0.28-1.25,0.31-2.67,0.38c-1.48,0.07-1.96-0.13-3.16,0.04
	c-1.03,0.15-1.71,0.45-2.22,0.64c-2.8,1.06-7.42,1.61-8.16,0.23c-0.39-0.71,0.53-1.43,0.04-2.9c-0.1-0.28-0.35-1.04-1.01-1.35
	c-0.54-0.26-0.83,0.03-1.73-0.04c-0.27-0.02-1.34-0.1-2.14-0.78c-0.88-0.76-0.63-1.6-1.44-1.97c-0.23-0.11-0.33-0.07-1.52,0
	c-1.54,0.1-2.32,0.14-2.67,0c-0.8-0.32-0.65-0.79-1.64-1.23c-0.39-0.17-0.82-0.25-1.68-0.41c-1.26-0.23-1.56-0.17-1.77-0.45
	c-0.26-0.36,0.08-0.66,0-1.6c-0.03-0.42-0.11-1.32-0.7-1.77c-0.46-0.34-0.76-0.06-1.36-0.45c-0.14-0.09-0.7-0.49-0.78-1.11
	c-0.03-0.27,0.05-0.34,0.29-1.19c0.27-0.99,0.22-1.12,0.16-1.19c-0.23-0.31-0.79,0.08-1.27-0.16c-0.77-0.39-1.11-2.22-0.37-3.2
	c0.71-0.94,2.09-0.7,2.22-1.4c0.08-0.42-0.43-0.56-0.66-1.48c-0.15-0.6-0.07-1.1,0-1.56c0.06-0.41,0.21-1.05,0.6-1.76
	c0.74,0.42,1.64,0.89,2.7,1.34c1.39,0.6,2.53,0.95,3.12,1.12c1.54,0.44,2.82,0.66,3.6,0.77c0.93,0.13,2.21,0.25,3.72,0.24
	c1.72-0.01,3.18-0.2,4.27-0.39c0.85-0.15,2.35-0.46,4.14-1.09c0.52-0.19,1.67-0.61,3.08-1.31c1.81-0.91,3.12-1.82,3.76-2.28
	c0.96-0.7,1.73-1.36,2.3-1.88C105.77,113.59,105.77,112.27,105.77,110.96z"/>
<path class="st6" d="M94.84,149.62c2.03-0.09,2.28-1.79,4.23-1.93c0.51-0.04,1.69,0.43,4.05,1.38c2.03,0.82,2.86,1.23,3.4,0.83
	c0.63-0.47,0.14-1.52,0.83-2.02c0.7-0.51,1.5,0.37,2.57,0c1.3-0.45,1.13-2.1,2.11-2.3c1.07-0.22,2.73,1.44,2.85,3.03
	c0.05,0.69-0.17,1.67-0.37,2.57c-0.19,0.84-0.35,1.3-0.09,1.65c0.28,0.37,0.71,0.2,1.38,0.46c0.88,0.34,1.77,1.28,1.75,2.11
	c-0.03,1.07-1.55,1.04-2.02,2.48c-0.4,1.2,0.46,1.8-0.09,3.13c-0.1,0.23-0.43,1.02-1.2,1.38c-0.78,0.37-1.18-0.1-2.02,0.18
	c-0.78,0.26-0.78,0.77-1.84,1.75c-0.7,0.65-1.41,1.3-2.39,1.47c-1.27,0.22-2.93-0.39-3.13-1.29c-0.26-1.17,2.09-2.16,1.75-3.22
	c-0.18-0.55-1.02-0.9-1.65-0.83c-0.68,0.08-0.79,0.61-1.56,0.92c-0.68,0.27-1.73,0.31-2.39-0.18c-1.12-0.84-0.23-2.6-1.47-3.68
	c-0.53-0.46-1.19-0.58-1.56-0.64c-1.35-0.25-1.96,0.38-2.48,0c-0.68-0.49-0.66-2.3,0.18-2.94c0.93-0.71,2.45,0.31,2.76-0.18
	c0.26-0.42-0.47-1.7-1.47-1.93c-0.86-0.2-1.2,0.55-2.67,0.74c-0.58,0.08-1.7,0.22-2.39-0.46c-0.81-0.79-0.78-2.44-0.09-2.94
	C92.48,148.67,93.23,149.69,94.84,149.62z"/>
<path class="st3" d="M168.95,165.86c-1.08,0.77-3.78,2.74-5.01,6.32c-1.54,4.47,0.19,8.52,0.93,10.26
	c2.65,6.23,8.09,9.11,10.57,10.42c2.21,1.17,8.69,4.48,16.46,2.74c2.25-0.5,5.47-1.22,8.09-3.98c3.99-4.2,4.24-10.62,2.67-15.2
	c-2.21-6.44-7.99-9.16-11.26-10.72C190.66,165.35,177.9,159.5,168.95,165.86z"/>
<path class="st5" d="M178.94,162.91c1.29,0.63,1.56,0.92,1.52,1.07c-0.08,0.28-1.13-0.02-1.64,0.58c-0.32,0.38-0.34,1.04-0.06,1.34
	c0.23,0.24,0.59,0.19,1.05,0.18c0.77-0.02,2.31-0.07,3.1,0.64c0.34,0.31,0.52,0.83,0.88,1.87c0.24,0.69,0.21,0.84,0.41,1.11
	c0.27,0.36,0.79,0.72,2.05,0.82c1.59,0.12,2.2-0.35,3.57-0.53c2.15-0.28,2.62,0.63,5.32,0.7c1.43,0.04,2.64-0.18,3.5-0.41
	c0.59,0.55,1.37,1.35,2.12,2.44c0.38,0.55,1.63,2.41,2.34,5.19c0.5,1.95,0.56,3.67,0.49,4.98c-0.5-0.09-1.28-0.18-2.2-0.06
	c-1.5,0.2-1.8,0.74-3.1,0.82c-0.23,0.01-2.32,0.12-2.98-0.99c-0.36-0.61,0.02-1.06-0.41-1.58c-0.55-0.66-1.7-0.56-2.1-0.53
	c-0.55,0.05-0.68,0.17-2.34,0.76c-1.47,0.52-1.71,0.54-1.99,0.47c-0.7-0.19-0.65-0.73-1.46-1.17c-0.9-0.48-2.17-0.47-2.51,0.06
	c-0.18,0.28,0.04,0.47,0.12,1.46c0.07,0.96-0.06,1.75-0.06,1.75c0.01,0,0.03-0.53,0.06-0.53c0.03,0-0.03,0.61,0.06,1.34
	c0.15,1.19,0.53,1.38,0.41,2.1c-0.09,0.55-0.33,0.55-0.47,1.17c-0.15,0.65,0.02,1.11,0.18,1.81c0.19,0.84,0.64,2.86,0.12,3.16
	c-0.34,0.19-1.13-0.29-1.52-0.88c-0.3-0.44-0.28-0.82-0.53-0.88c-0.28-0.06-0.66,0.34-0.82,0.76c-0.18,0.51,0.01,0.9,0.18,1.64
	c0.1,0.43,0.2,1.08,0.2,1.91c-1.63-0.39-3-0.86-4.07-1.29c-0.39-0.16-2.16-0.87-4.34-2.15c-0.7-0.41-1.67-0.99-2.86-1.89
	c-0.82-0.62-1.79-1.36-2.87-2.53c-0.39-0.42-1.46-1.62-2.51-3.44c-1.02-1.78-1.51-3.26-1.64-3.67c-0.36-1.14-0.83-2.63-0.8-4.65
	c0.03-2.22,0.65-3.84,0.83-4.27c0.69-1.72,1.63-2.83,2.1-3.38c1.06-1.24,2.09-1.96,2.71-2.39c0.56-0.39,2.03-1.36,4.16-2.07
	C175.4,163.01,177.46,162.87,178.94,162.91z"/>
<path class="st5" d="M155.46,163.79c-0.77-0.05-1.37,1.02-2.39,2.82c-1.15,2.03-1.23,2.94-1.23,3.5c0,0.42,0.02,1.49,0.55,1.72
	c0.57,0.24,1.56-0.55,2.08-1.41c0.79-1.3,0.18-2.23,0.94-2.91c0.81-0.73,2.04-0.12,2.31-0.71c0.21-0.45-0.35-1.13-0.92-1.84
	C156.2,164.2,155.89,163.82,155.46,163.79z"/>
<radialGradient id="SVGID_3_" cx="127.1423" cy="349.8806" r="111.4918" gradientUnits="userSpaceOnUse">
	<stop  offset="0" style="stop-color:#545454"/>
	<stop  offset="0.5023" style="stop-color:#2B2B2B"/>
</radialGradient>
<circle class="st7" cx="127.14" cy="349.88" r="55.75"/>
<path class="st8" d="M142.62,357.74c1.1-2.21,2.59-5.89,3.05-10.66c0.46-4.84-0.34-8.78-1.02-11.17c-2.06,2-4.4,4.64-6.6,8.02
	c-1.35,2.08-2.42,4.08-3.25,5.89c-0.67-0.09-1.5-0.15-2.44-0.1c-0.9,0.05-1.68,0.19-2.32,0.35c-0.62-1.83-1.56-4.07-3.03-6.45
	c-2.07-3.34-4.41-5.7-6.22-7.25c-1.02,2.01-2.18,4.75-2.95,8.13c-0.73,3.2-0.9,6.03-0.88,8.21c-1.03,1.21-2.87,3.76-2.87,7.09
	c0.01,3.74,2.35,6.34,5.74,10.12c3.52,3.92,5.29,5.89,7.89,6.3c4.57,0.72,8.41-3.1,12.35-7.01c3.41-3.39,3.83-5.38,3.9-6.53
	C144.14,360.47,143.22,358.69,142.62,357.74z"/>
<path class="st9" d="M124.84,398.1c3.3-2.3,5.41-4.67,6.67-6.3c0.46-0.6,1.17-1.49,1.91-2.8c1.47-2.64,1.7-4.75,4.93-10.34
	c0,0,4.34-7.53,10.2-12.8c0.32-0.28,0.97-0.86,1.89-1.53c2.1-1.52,4.35-3.15,7.16-3.29c0.9-0.04,3.04,0.01,5.59,1.71
	c2.49-3.79,7.55-10.43,16.23-15.77c8.91-5.48,17.35-6.96,21.89-7.43c0.66-2.96,2.49-9.24,7.95-14.85c3.36-3.45,6.9-5.41,9.33-6.51
	c-1.74-2.46-4.73-5.94-9.4-8.41c-3.52-1.87-9.48-3.95-22.85-1.75c-7.85,1.29-20.41,4.42-34.68,12.99
	c-2.34,4.96-4.68,9.93-7.01,14.89c0.15,0.52,0.32,1.18,0.49,1.97c0.35,1.63,0.49,2.92,0.55,3.49c0.27,2.8,0.07,5.17-0.12,6.65
	c-0.08,0.61-0.29,2.1-0.8,4c-0.64,2.39-1.46,4.33-2.14,5.73c0.19,0.31,0.43,0.72,0.65,1.23c0.2,0.46,0.43,0.96,0.57,1.66
	c0.1,0.47,0.12,0.84,0.14,1.18c0.03,0.49,0.05,0.87-0.02,1.35c-0.08,0.57-0.25,0.98-0.4,1.36c-0.24,0.59-0.51,1.04-0.76,1.43
	c0,0-0.05,0.08-0.11,0.16c-0.72,1.07-1.91,2.35-1.91,2.35c-0.64,0.69-1.12,1.16-1.86,1.88c-0.39,0.38-0.85,0.83-1.49,1.41
	c-0.69,0.64-1.15,1.06-1.84,1.6c-0.77,0.61-1.37,1.02-1.81,1.3c-0.32,0.21-0.54,0.33-0.64,0.38c-0.34,0.19-0.82,0.46-1.49,0.71
	c-0.53,0.2-0.95,0.3-1.09,0.33c-0.66,0.15-1.18,0.19-1.31,0.19c-0.36,0.02-1.01,0.05-1.83-0.13c-0.71-0.15-1.24-0.4-1.5-0.53
	c-0.32-0.16-0.57-0.33-0.75-0.45c-0.4-0.26-0.67-0.49-0.94-0.71c-0.46-0.38-0.78-0.69-0.99-0.89c-0.19-0.19-0.33-0.33-0.56-0.56
	c-0.2-0.21-0.35-0.37-0.79-0.84c-0.45-0.48-0.67-0.72-0.76-0.81c-0.34-0.38-0.38-0.42-1.09-1.21c-0.33-0.37-0.32-0.35-0.5-0.55
	c-0.18-0.2-0.49-0.54-0.87-0.98c-0.44-0.51-0.73-0.83-1.09-1.26c-0.41-0.49-0.67-0.8-1.01-1.26c-0.3-0.4-0.7-0.93-1.13-1.67
	c-0.26-0.44-0.41-0.76-0.48-0.9c-0.08-0.16-0.23-0.49-0.37-0.88c-0.1-0.26-0.34-0.96-0.44-1.9c-0.02-0.16-0.1-0.9-0.01-1.88
	c0.08-0.89,0.27-1.55,0.33-1.75c0.15-0.49,0.3-0.85,0.42-1.13c0.08-0.18,0.36-0.81,0.84-1.59c0.3-0.48,0.7-1.07,1.23-1.7
	c-0.32-3.27-0.7-6.6-1.14-10c-1.05-8.11-2.37-15.82-3.87-23.09c-6.68-3.62-11.59-6.3-14.21-7.74c-10.14-5.55-12.73-7.04-17.33-7.74
	c-2.59-0.39-3.86-0.24-8.37-1c-4.78-0.81-6.03-1.44-9.16-1.47c-1.96-0.02-5.01-0.05-8,1.31c-5.58,2.54-7.73,8.43-8.32,10.28
	c2.65,1.54,7.13,4.63,10.82,10.06c2.68,3.94,4,7.71,4.69,10.33c3.19,0.75,7.25,2.14,11.41,4.81c11.22,7.2,15.08,18.55,16.22,22.46
	c5.79-1.91,9.68-0.6,11.09-0.01c2.92,1.21,4.93,3.56,8.96,8.25c1.98,2.31,3.03,3.55,4.07,5.6c1.25,2.47,1.12,3.44,2.59,7.96
	c0.78,2.41,1.58,4.85,2.84,7.39C120.29,392.13,121.98,395,124.84,398.1z"/>
<path class="st10" d="M112.61,379c-0.25-0.1-3.67-1.49-3.77-3.89c-0.04-0.91,0.41-1.61,1.06-2.59c0.68-1.03,1.93-2.62,4.13-4.07
	c0.28,0.69,0.55,1.38,0.83,2.06c-0.15,0.37-0.38,0.99-0.59,1.77c-0.45,1.68-0.37,2.52-0.71,4.01
	C113.41,376.92,113.14,377.87,112.61,379z"/>
<path class="st10" d="M136.66,380.36c0.11,1.26,0.21,2.49,0.29,3.71c0.29-0.01,2.53-0.13,3.77-1.95c1.24-1.81,0.53-3.9,0.29-4.6
	c-0.66-1.93-2.08-2.96-2.59-3.3c-0.73,0.65-1.45,1.3-2.18,1.95C136.4,377.54,136.53,378.94,136.66,380.36z"/>
<path class="st11" d="M139.73,369.58c0.4,0.87,0.63,1.82,0.53,2.82c-0.52,5.08-9.53,10.14-16.45,8.14
	c-6.44-1.86-11.13-9.86-9.47-18.81c0.07,0.29,0.2,0.73,0.4,1.25c0.52,1.33,1.2,2.25,1.9,3.2c0.41,0.55,0.75,0.95,1.44,1.76
	c0.46,0.53,0.92,1.05,1.85,2.08c0.81,0.9,1.26,1.39,1.42,1.57c0.56,0.6,0.83,0.9,1.21,1.3c0.75,0.77,1.3,1.28,1.78,1.67
	c0.31,0.25,0.59,0.47,0.89,0.66c0.19,0.13,0.36,0.23,0.45,0.28c0.86,0.5,1.88,0.7,1.96,0.71c1,0.19,1.79,0.09,2.27,0.02
	c1.29-0.18,2.2-0.63,2.88-0.97c0.89-0.44,1.5-0.89,2.16-1.38c0.85-0.63,1.49-1.2,2.03-1.69c0.27-0.25,0.64-0.6,1.36-1.28
	C138.92,370.35,139.39,369.9,139.73,369.58z"/>
<path class="st12" d="M37.04,644.25c2.07,1.32,5.87,3.27,10.26,2.59c1.79-0.28,3.11-0.91,7.47-3.83c7-4.69,10.51-7.04,13.53-10.2
	c1.59-1.67,4.54-4.79,7.23-9.51c1.63-2.87,1.39-3.21,2.59-4.74c2.3-2.94,6.56-5.99,11.94-6.01c4.24-0.02,7.35,1.85,8.67,2.77
	c1.15,2.47,2.31,4.94,3.46,7.41c0.16,2,0.17,6.09-2.39,9.6c-4.05,5.55-11.82,5.88-15.09,6.02c-6.53,0.28-7.08-1.95-12.53-1.12
	c-4.43,0.68-7.75,2.71-12.64,5.7c-5.57,3.41-6.61,5.21-10.52,5.81c-1.26,0.2-4.64,0.67-8.1-1.17
	C38.98,646.53,37.73,645.15,37.04,644.25z"/>
<path class="st12" d="M91.14,657.58c2.65-0.23,8.52-1.15,12.76-5.77c3.19-3.48,4.14-7.63,4.83-10.63c1.44-6.28-0.28-7.49,1.44-12.29
	c0.75-2.1,2.68-7.47,7.67-9.08c3.87-1.25,7.49,0.46,8.67,1.08c2.36,2.71,4.73,5.43,7.09,8.14c0.33,1.21,1.06,4.56-0.48,8.2
	c-1.42,3.37-4.29,5.8-7.23,6.82c-2.87,1-3.64-0.11-7.74,1.04c-1.28,0.36-3.48,1-5.75,2.59c-3.08,2.16-2.71,3.55-5.65,5.81
	c-2.5,1.92-4.97,2.61-7.06,3.19C96.36,657.61,93.39,657.71,91.14,657.58z"/>
<path class="st12" d="M57.58,582.4c1.34,1.74,4.64,5.52,10.24,7.32c6.18,1.99,11.57,0.44,13.45-0.21c5.84-2.01,5.79-4.93,11.29-6.32
	c1.47-0.37,6.46-1.55,11.44,1.06c5.99,3.13,7.62,9.44,7.89,10.57c-1.45,3.21-2.89,6.42-4.34,9.63c-0.63,0.78-4.28,5.13-10.4,5.5
	c-5,0.3-10.28-2.14-12.55-6.06c-1.68-2.88-0.8-4.97-3.09-7.03c-1.57-1.41-2.84-1.21-6.38-2.16c-1.38-0.37-6.6-1.85-10.72-4.74
	C62.58,588.71,59.92,586.43,57.58,582.4z"/>
<path class="st13" d="M100.11,618.25c0,0.01,1.02,2.19,1.03,2.19c0,0.01,1.06,2.27,1.06,2.28c3.59-1.69,9.16-4.3,16.06-7.43
	c10.53-4.78,11.75-5.15,15.29-7.16c8.03-4.55,6.78-5.43,16.78-11.54c4.8-2.93,8.74-5.36,15.02-8.98c4.49-2.59,8.29-4.71,11.03-6.21
	c-7.88,2.3-14.15,4.99-18.68,7.19c-6.83,3.33-12.35,6.86-16.02,9.2c-6.74,4.31-6.23,4.5-10.67,7.07c-4.82,2.79-8.56,4.39-15.85,7.47
	C111.35,613.95,106.25,616.02,100.11,618.25z"/>
<path class="st14" d="M98.73,615.31c0.46,0.98,0.92,1.96,1.37,2.94c5.43-1.88,12.87-5.24,20.28-11.38
	c4.31-3.57,12.75-11.51,18.13-24.23c2.94-6.94,3.95-12.89,4.53-16.49c0.48-2.95,0.7-5.38,0.79-6.39c0,0,0.48-5.8,0.13-11.4
	c-0.72-11.41-5.48-23.54-6.26-25.5c1.7,5.28,3.48,12.61,3.96,21.47c0.22,4.14,0.3,11.36-1.32,20.12
	c-1.14,6.15-3.15,16.97-10.09,27.39C120.35,606.69,105.63,612.93,98.73,615.31z"/>
<path class="st15" d="M113.36,611.93c-0.69,0.43-1.56,0.96-2.59,1.53c-1.99,1.12-3.59,1.87-4.21,2.17
	c-1.98,0.92-3.37,1.46-3.34,1.46c0.85-0.31,2.08-0.77,3.57-1.35c0,0,0,0,0,0c0,0,0,0,0,0c0.3-0.12,0.64-0.25,1-0.39
	c0.37-0.15,0.72-0.28,1.05-0.42c0.37-0.15,0.78-0.31,1.23-0.49c0.53-0.21,0.97-0.39,1.31-0.53c0.18-0.07,0.44-0.18,0.74-0.3
	c0.11-0.04,0.7-0.29,1.39-0.57c0.24-0.1,0.99-0.41,2.74-1.15c1.03-0.43,1.54-0.65,2.29-0.97c0.99-0.42,1.63-0.7,2.47-1.06
	c0.99-0.44,1.88-0.82,3.06-1.37c0.66-0.31,1.55-0.72,2.71-1.31c0.73-0.37,1.31-0.68,1.67-0.87c0.92-0.49,2.09-1.14,3.44-1.94l0,0
	c0.63-0.37,1.27-0.78,1.94-1.22c0.52-0.34,1.01-0.69,1.49-1.03c3.3-4.48,6.81-9.02,10.55-13.61c10.23-12.54,20.6-23.47,30.62-32.95
	c-2.51,2.09-5.84,4.92-9.69,8.35c-1.19,1.05-6.78,6.03-11.35,10.5c-7.95,7.78-11.7,12.3-15.44,17.21
	C135.46,597.55,127.65,605.27,113.36,611.93z"/>
<path class="st12" d="M101.13,611.21"/>
<path class="st16" d="M98.73,615.31c0.64-0.22,1.29-0.45,1.95-0.7c0.7-0.26,1.37-0.53,2.03-0.8c5.91-5.53,10.49-9.68,13.49-12.38
	c3.44-3.1,6.09-5.42,8.47-9.54c0.99-1.71,2.64-4.63,3.19-8.72c0.44-3.24-0.01-5.74-0.71-9.06c-2.23-10.55-3.95-15.73-3.95-15.73
	c-1.87-5.67-4.57-13.14-8.37-21.92c1.59,4.94,2.86,9.09,3.79,12.2c1.78,5.91,2.45,8.48,2.72,9.48c1.27,4.86,1.98,8.31,2.16,9.17
	c0.48,2.36,0.77,4.05,1.23,6.77c0.63,3.71,0.95,5.59,0.95,6.47c0,4.07-1.59,7.18-2.46,8.86c-1.64,3.14-3.51,4.97-6.47,7.79
	c-2.08,1.99-5.13,4.62-9.21,7.27c-0.64,0.77-1.52,1.7-2.71,2.59c-0.93,0.7-1.82,1.2-2.58,1.57
	C101.09,610.85,99.91,613.08,98.73,615.31z"/>
<path class="st17" d="M133.6,629.03c0.75-1.89,1.75-4.4,2.91-7.36c2.21-5.64,2.62-6.82,2.96-8.37c0.45-2.08,0.87-5.22,0.38-9.29
	c-1.08,0.76-2.17,1.53-3.25,2.29c-0.06,1.96-0.33,4.36-1.07,7.01c-1.45,5.22-4.04,8.97-5.88,11.18
	C130.97,626.01,132.28,627.52,133.6,629.03z"/>
<path class="st18" d="M130.54,609.72c1-0.53,2-1.06,3-1.59c-0.08,1.78-0.37,4.13-1.24,6.77c-1.18,3.58-2.93,6.19-4.23,7.83
	c-0.52-0.61-1.04-1.23-1.56-1.84c0.9-0.95,2.37-2.75,3.28-5.44C130.6,613.06,130.62,610.98,130.54,609.72z"/>
<path class="st19" d="M129.65,624.5c1.7-2.05,4.1-5.46,5.59-10.23c0.97-3.09,1.28-5.85,1.35-7.96c-1.02,0.61-2.04,1.22-3.06,1.83
	c-0.05,1.17-0.18,2.44-0.45,3.79c-0.97,4.89-3.25,8.54-5.02,10.81C128.6,623.32,129.12,623.91,129.65,624.5z"/>
<path class="st20" d="M134.47,590.54c-2.13,3.51-5.23,7.87-9.64,12.27c-4.1,4.09-8.15,7.04-11.47,9.12c5.34-2.49,9.26-4.9,11.8-6.61
	c2.41-1.62,4.12-2.98,4.63-3.39c2.17-1.74,3.93-3.37,5.27-4.7c8.49-11.33,13.4-21.84,16.26-29.25c4.57-11.85,6.03-21.34,6.4-23.92
	c0.64-4.5,0.89-8.35,0.99-11.21c-0.57,2.88-1.48,7.16-2.83,12.3c-2.85,10.83-5.68,21.33-12.35,32.66
	C141.64,581.02,138.72,585.53,134.47,590.54z"/>
<path class="st21" d="M111.89,594.83c0.68,0.32,1.83,0.75,3.31,0.82c1.78,0.08,3.16-0.4,3.88-0.71c-1.62,1.69-3.53,3.49-5.75,5.3
	c-2.02,1.65-3.97,3.05-5.78,4.22C108.99,601.25,110.44,598.04,111.89,594.83z"/>
<path class="st21" d="M91.59,612.62c1.99,0.28,3.4-0.38,3.53-1.11c0.14-0.82-1.33-1.71-1.4-1.75c1.02,0.19,2.53,0.36,4.34,0.12
	c1.83-0.24,3.27-0.8,4.21-1.25c-0.57,1.08-1.14,2.16-1.71,3.24c-0.61,1.15-1.22,2.3-1.82,3.44c-0.72-0.5-1.62-1.04-2.72-1.52
	C94.31,613.06,92.75,612.75,91.59,612.62z"/>
<path class="st22" d="M126.77,572.31c0.06-4.4,1.14-5.89,2.15-6.42c0.76-0.4,2.24-0.78,3.56-2.22c1.1-1.19,0.44-2.04,0.94-8.07
	c0.16-1.87,0.44-2.91-0.24-3.61c-0.79-0.81-1.75-0.06-3.14-0.68c-2.27-1-1.53-3.77-3.98-5.36c-1.68-1.09-2.93-0.39-3.69-1.58
	c-0.76-1.19,0.21-2.32-0.61-3.45c-0.82-1.12-2.1-0.43-3.04-1.4c-1.37-1.4,0.39-3.78-0.46-6.57c-0.42-1.39-1.23-2.03-3.84-4.2
	c-8.02-6.67-9.38-8.11-10.96-7.53c-1.26,0.46-0.79,1.51-3,3.17c-2.09,1.57-3.71,1.54-4.03,2.82c-0.2,0.79,0.14,1.86,0.84,2.27
	c1.32,0.78,2.83-1.4,5.45-1.03c0.24,0.03,2.12,0.33,2.75,1.64c0.62,1.27-0.63,2.09-0.39,3.66c0.4,2.61,4.21,2.73,4.49,5.02
	c0.23,1.84-2.13,2.6-1.95,5.17c0.1,1.39,0.83,1.76,0.52,2.59c-0.65,1.76-4.44,1.54-4.47,2.36c-0.02,0.53,1.54,0.98,1.82,1.06
	c1.5,0.41,1.98-0.04,3.23,0.11c2.36,0.29,2.52,2.15,4.82,2.34c1.43,0.12,1.86-0.55,2.72-0.2c1.55,0.63,0.47,3.8,1.84,4.61
	c0.47,0.28,1.27,0.34,2.76-0.49c-0.87-3.07-1.78-6.19-2.73-9.33c-1.08-3.58-2.18-7.1-3.3-10.55c2.89,6.64,5.01,12.26,6.49,16.46
	c0.78,2.21,1.82,5.06,2.84,8.73c0.56,2,1.05,4.02,1.27,4.92C126.01,568.88,126.45,570.85,126.77,572.31z"/>
<path class="st23" d="M102.71,613.81c5.9-2.44,10.29-5.2,13.24-7.32c2.79-2,4.74-3.75,5.46-4.41c1.13-1.03,4.05-3.78,6.89-7.51
	c1.39-1.83,2.43-3.47,2.71-3.91c0.26-0.41,0.76-1.22,1.35-2.27c0.17-0.3,1.06-1.87,1.98-3.82c0.5-1.07,1.89-4.09,3.22-8.33
	c0.98-3.11,1.49-5.46,1.99-7.75c0.94-4.31,1.37-7.55,1.48-8.4c0.34-2.6,0.52-4.83,0.62-6.56c-0.2-1.7-0.41-3.39-0.61-5.09
	c-0.94,2.56-1.81,4.78-2.56,6.61c-1.73,4.25-2.23,5.07-2.98,5.76c-0.22,0.2-2.42,2.18-2.94,2.77c-0.04,0.05-0.23,0.27-0.52,0.53
	c-0.2,0.18-0.37,0.31-0.48,0.39c-0.15,0.12-0.41,0.31-0.74,0.5c-0.28,0.16-0.48,0.24-0.72,0.35c-0.86,0.38-1.29,0.57-1.6,0.81
	c-0.42,0.32-0.61,0.69-0.86,1.14c-0.5,0.92-0.61,1.75-0.75,2.89c-0.06,0.53-0.13,1.25-0.13,2.1c0.5,1.97,0.79,3.62,0.97,4.85
	c0.25,1.66,0.28,2.51,0.29,3.01c0.01,0.66,0,1.72-0.17,3c-0.07,0.53-0.29,2.01-0.91,3.87c-0.51,1.52-1.06,2.59-1.49,3.43
	c-1.17,2.27-2.39,3.91-3.06,4.77c-1.05,1.33-1.91,2.17-3.27,3.51c-1.08,1.06-1.34,1.25-4.35,3.96c-1.59,1.43-2.79,2.53-3.85,3.5
	c-0.49,0.45-2.07,1.89-4.08,3.76c-0.39,0.36-1.22,1.13-2.26,2.1C103.87,612.73,103.24,613.32,102.71,613.81z"/>
<path class="st24" d="M134.47,590.54c3.13-3.69,6.57-8.35,9.8-14.02c4.31-7.57,6.91-14.65,8.54-20.33c-3-0.22-4.09,0.38-4.51,0.99
	c-0.15,0.22-0.44,0.78-1.1,1.21c-0.57,0.37-1.09,0.44-1.26,0.48c-0.56,0.13-1.6,0.81-2.59,5.3c-0.39,1.76-0.4,2.45-0.67,4.19
	c0,0-0.37,2.37-1.32,5.98C139.67,580.76,134.77,590,134.47,590.54z"/>
<path class="st25" d="M128.64,550.01c0.36-2.25,0.79-5.63,0.76-9.15c-0.02-2.27-0.21-3.29-0.34-3.86c-0.46-2-0.94-2.07-1.12-3.73
	c-0.09-0.82,0.01-1.02-0.11-3.87c-0.04-0.92-0.07-1.48-0.47-2c-0.44-0.58-1.31-1.08-2-0.86c-0.84,0.27-0.96,1.43-1.38,1.38
	c-0.38-0.04-0.27-0.96-0.91-1.82c-0.86-1.14-2.18-0.97-2.25-1.56c-0.09-0.77,2.13-1.12,2.29-2.43c0.08-0.62-0.33-1.27-0.73-1.61
	c-0.74-0.64-1.52-0.3-1.89-0.88c-0.33-0.51,0.19-0.92-0.08-1.58c-0.23-0.57-0.96-0.83-2.41-1.33c-1.33-0.45-2.01-0.67-2.46-0.44
	c-0.71,0.37-0.44,1.16-1.07,2.05c-0.84,1.19-2.2,1.04-4.37,1.8c-0.96,0.33-2.29,0.92-3.77,2c0.71,0.53,1.3,0.98,1.74,1.33
	c0.51,0.41,1.08,0.88,2.19,1.81c0.2,0.17,0.68,0.57,1.64,1.37c0.31,0.26,0.93,0.78,1.56,1.31c0.19,0.16,0.42,0.35,0.59,0.49
	c0.34,0.28,0.51,0.42,0.69,0.58c0.63,0.53,0.61,0.5,0.87,0.72c0.23,0.2,0.49,0.41,0.81,0.7c0.45,0.41,0.67,0.61,0.91,0.88
	c0.07,0.08,0.42,0.49,0.66,0.94c0.79,1.44,0.51,3.2,0.38,3.99c0,0.01-0.04,0.28-0.09,0.64c-0.08,0.61-0.09,0.82-0.09,0.9
	c-0.01,0.27-0.02,0.5,0.05,0.79c0.03,0.12,0.06,0.28,0.16,0.48c0.05,0.1,0.15,0.28,0.33,0.46c0.05,0.05,0.25,0.25,0.59,0.4
	c0.18,0.08,0.41,0.13,0.85,0.22c0.47,0.09,0.48,0.07,0.65,0.13c0.16,0.05,0.46,0.15,0.74,0.41c0.37,0.34,0.48,0.76,0.52,0.91
	c0.06,0.23,0.04,0.52,0.02,1.11c-0.02,0.45-0.04,0.55-0.01,0.81c0.03,0.19,0.06,0.45,0.23,0.74c0.06,0.1,0.27,0.48,0.71,0.71
	c0.2,0.1,0.41,0.15,0.83,0.24c0.23,0.05,0.32,0.06,0.49,0.09c0.04,0.01,0.1,0.02,0.17,0.04c0.13,0.03,0.25,0.06,0.31,0.08
	c0.3,0.08,0.58,0.2,0.58,0.2c0.18,0.08,0.48,0.22,0.82,0.46c0.23,0.17,0.4,0.32,0.49,0.41c0.08,0.08,0.43,0.42,0.77,1
	c0.18,0.31,0.28,0.55,0.44,0.9c0.18,0.42,0.22,0.59,0.41,1.02C128.45,549.66,128.56,549.88,128.64,550.01z"/>
<path class="st26" d="M144.04,555.88c0.68-1.76,0.96-3.24,1.09-4.28c0.32-2.58-0.23-2.96,0.24-5.02c0.52-2.25,1.43-2.94,0.98-4.12
	c-0.43-1.14-1.47-0.97-1.83-2.08c-0.45-1.38,0.58-3.39,2.03-4.21c1.06-0.59,1.76-0.22,2.35-0.94c0.71-0.86,0-1.76,0.59-2.59
	c0.83-1.16,2.72-0.08,4-1.12c1.81-1.48,0.94-6.03-0.08-6.24c-0.41-0.08-0.72,0.57-1.08,0.43c-0.52-0.2,0.03-1.61-0.45-3.48
	c-0.41-1.64-1.18-1.92-0.97-2.96c0.19-0.96,0.92-1.15,0.81-1.89c-0.12-0.79-1.01-0.84-1.24-1.8c-0.15-0.63,0.18-0.8,0.15-1.63
	c-0.02-0.74-0.32-1.87-0.97-2.22c-0.41-0.22-1.23-0.28-4.12,1.99c-3.52,2.76-4.52,4.58-5.51,4.24c-0.67-0.23-0.9-1.28-1.31-3.16
	c-0.54-2.43-0.24-3.69-0.79-3.88c-0.62-0.22-1.78,1.13-2.35,2.07c-0.68,1.11-0.61,1.77-1.41,2.4c-0.7,0.55-1.03,0.25-1.63,0.7
	c-1.1,0.82-0.44,2.13-1.3,4.56c-0.65,1.86-1.56,2.57-1.15,3.3c0.24,0.44,0.65,0.32,1.7,0.92c0.99,0.57,1.85,1.03,2.03,1.83
	c0.07,0.34-0.08,0.79-0.4,1.69c-0.31,0.88-0.46,1.31-0.78,1.55c-0.57,0.43-1.33,0.27-2.13,0.11c-0.62-0.13-1.61-0.42-2.7-1.18
	c0.02,0.34,0.04,0.86,0.06,1.5c0.02,0.78,0.01,0.97,0.03,1.78c0.03,1.24,0.09,1.64,0.22,2.08c0.02,0.06,0.01,0.03,0.27,0.76
	c0.35,0.98,0.53,1.47,0.6,1.69c0.17,0.58,0.22,1.01,0.3,1.65c0.05,0.4,0.15,1.37,0.12,3.33c-0.01,0.42-0.03,1.61-0.14,3.17
	c-0.02,0.26-0.11,1.42-0.3,2.96c-0.11,0.88-0.22,1.63-0.32,2.23c0.1,0.19,0.27,0.46,0.55,0.73c0.49,0.47,1.02,0.64,1.16,0.69
	c0.64,0.19,1.42,0.15,1.59,0.15c0.15-0.01,0.38-0.03,0.67,0.07c0.33,0.11,0.52,0.3,0.57,0.35c0.04,0.04,0.14,0.15,0.24,0.32
	c0.15,0.28,0.21,0.6,0.19,1.23c-0.01,0.36-0.04,0.53-0.1,1.18c0,0-0.02,0.24-0.1,1.04c-0.08,0.83-0.11,1.48-0.14,2.1
	c-0.01,0.3-0.06,1.14-0.07,2.11c0,0.18-0.01,0.37-0.01,0.55c0,0.25-0.01,0.87-0.04,1.36c0,0.06-0.01,0.17-0.03,0.32
	c-0.02,0.2-0.05,0.34-0.06,0.37c-0.09,0.4-0.46,0.93-0.51,1.01c0.78-0.8,1.44-1.41,1.9-1.82c0.8-0.72,1.08-0.91,1.5-1.44
	c0.41-0.51,0.64-0.99,1.1-1.93c0.36-0.75,0.62-1.35,1.25-2.92c0.43-1.06,0.65-1.59,0.88-2.19c0.47-1.2,1.11-2.84,1.85-4.85
	c0.09,0.76,0.18,1.53,0.27,2.29c0.11,0.93,0.22,1.87,0.33,2.8c0.13-2.28,0.18-4.9,0.08-7.81c-0.08-2.05-0.26-4.94-0.73-8.37
	c-0.34-2.51-0.87-5.5-1.69-8.85c-0.55-2.24-1.12-4.15-1.6-5.65c0.84,2.14,1.54,4.1,2.11,5.84c0.27,0.83,1.05,3.22,1.79,6.04
	c0.4,1.51,0.67,2.71,0.75,3.05c0.23,1,0.38,1.76,0.44,2.05c0.19,0.95,0.32,1.67,0.36,1.91c0.16,0.89,0.26,1.56,0.29,1.77
	c0.15,1.02,0.24,1.79,0.27,2c0.12,1.04,0.18,1.83,0.2,2.07c0.01,0.15,0.06,0.83,0.11,1.75c0.03,0.74,0.05,1.3,0.06,1.63
	c0,0.14,0.01,0.64,0.02,1.29c0,0.13,0,0.51,0,1c0,0.17,0,0.58-0.01,1.11c0,0.14-0.01,0.44-0.02,0.83
	C144.05,555.46,144.04,555.69,144.04,555.88z"/>
<path class="st27" d="M132.37,530.09c0.14-0.06,0.24-0.13,0.26-0.15c0.27-0.2,0.38-0.46,0.55-0.92c0.2-0.54,0.31-0.81,0.45-1.29
	c0.19-0.63,0.21-0.81,0.17-1.02c-0.05-0.26-0.18-0.45-0.29-0.59c-0.06-0.08-0.23-0.31-0.94-0.77c0,0-0.47-0.31-1.04-0.6
	c-0.17-0.09-0.28-0.14-0.43-0.2c-0.15-0.06-0.25-0.09-0.49-0.19c-0.14-0.06-0.21-0.09-0.25-0.11c-0.08-0.05-0.27-0.19-0.36-0.43
	c-0.1-0.28,0.01-0.55,0.1-0.78c0.03-0.07,0.06-0.13,0.08-0.17c-0.31-0.02-0.7-0.1-0.92-0.4c-0.27-0.37-0.01-0.75-0.29-1.07
	c-0.33-0.39-0.99-0.16-1.12-0.48c-0.09-0.23,0.2-0.44,0.09-0.67c-0.07-0.14-0.25-0.18-0.6-0.28c-0.12-0.03-0.47-0.13-0.74-0.13
	c-0.66,0-0.98,0.62-1.58,1c-0.4,0.25-1.06,0.48-2.19,0.26c0.05,0.08,0.11,0.19,0.16,0.32c0.04,0.11,0.1,0.26,0.11,0.47
	c0.02,0.24-0.04,0.43-0.05,0.48c-0.08,0.27-0.23,0.43-0.37,0.58c-0.23,0.25-0.48,0.4-0.78,0.59c-0.06,0.04-0.14,0.08-0.32,0.2
	c-0.21,0.13-0.32,0.2-0.44,0.29c-0.14,0.11-0.21,0.17-0.26,0.27c-0.02,0.05-0.1,0.21-0.04,0.36c0.05,0.13,0.16,0.19,0.29,0.27
	c0.08,0.04,0.13,0.06,0.27,0.12c0.14,0.05,0.28,0.11,0.42,0.17c0.09,0.04,0.37,0.15,0.66,0.35c0.31,0.22,0.49,0.45,0.56,0.53
	c0.18,0.23,0.28,0.44,0.31,0.51c0.03,0.07,0.07,0.15,0.14,0.32c0.09,0.22,0.11,0.29,0.12,0.31c0.06,0.19,0.03,0.19,0.08,0.33
	c0.04,0.11,0.13,0.35,0.29,0.38c0.04,0.01,0.08,0,0.11-0.01c0.1-0.03,0.16-0.11,0.28-0.31c0.1-0.16,0.11-0.19,0.19-0.32
	c0.07-0.11,0.12-0.19,0.19-0.28c0.09-0.11,0.2-0.25,0.4-0.37c0.04-0.02,0.22-0.12,0.47-0.15c0.25-0.03,0.44,0.03,0.6,0.08
	c0.31,0.1,0.52,0.25,0.65,0.34c0.13,0.09,0.34,0.25,0.53,0.52c0.21,0.29,0.28,0.57,0.33,0.73c0.08,0.28,0.09,0.52,0.09,0.69
	c0.15,0.1,0.33,0.23,0.56,0.36c0.45,0.26,0.82,0.41,0.98,0.48c0.4,0.16,0.72,0.24,0.96,0.3c0.67,0.17,1.09,0.2,1.2,0.21
	C131.86,530.22,132.12,530.2,132.37,530.09z"/>
<path class="st28" d="M150.6,556.2c0.41-0.05,0.74-0.05,1.11-0.05c0.44,0,0.82,0.02,1.1,0.05c0.67-2.26,1.24-4.26,1.71-5.95
	c0.9-3.24,1.52-5.7,1.7-6.4c0.36-1.42,0.82-3.24,1.36-5.66c0.47-2.1,0.85-3.91,1.12-5.32c-0.06,1.88-0.17,3.6-0.3,5.15
	c-0.26,3.13-0.6,5.5-0.73,6.35c-0.27,1.85-0.58,3.54-0.89,5.05c4.59,0.37,6.55-0.77,7.8-1.47c2.17-1.22,2.09-2.11,4.85-3.61
	c2.43-1.32,3.68-1.23,5.08-2.83c0.38-0.43,1.83-1.98,1.36-3.17c-0.27-0.67-1.05-0.95-2.62-1.52c-1.35-0.48-2.02-0.73-2.61-0.54
	c-1.4,0.47-1.51,2.44-2.4,2.43c-0.46-0.01-1.02-0.55-1.11-1.12c-0.33-2.08,5.53-3.82,5.22-5.76c-0.18-1.11-2.16-0.94-2.7-2.57
	c-0.5-1.49,0.82-2.63,0.12-3.72c-0.6-0.95-1.97-0.7-2.11-1.36c-0.15-0.78,1.7-1.21,1.91-2.45c0.22-1.33-1.62-2.67-2.55-3.34
	c-1.53-1.11-2.99-1.46-5.89-2.16c-2.8-0.68-3.46-0.51-3.69-0.16c-0.32,0.47,0.33,0.95,0.21,2.02c-0.17,1.4-1.38,1.39-1.93,3.04
	c-0.44,1.34,0.01,2.36-0.68,2.79c-0.35,0.21-0.71,0.1-1.09,0.46c-0.3,0.29-0.4,0.67-0.44,0.95c0.19,0.14,0.3,0.29,0.37,0.39
	c0.06,0.1,0.11,0.19,0.14,0.27c0.06,0.13,0.1,0.23,0.13,0.31c0.06,0.16,0.09,0.28,0.12,0.36c0.01,0.03,0.05,0.19,0.1,0.4
	c0.01,0.04,0.04,0.17,0.06,0.34c0.01,0.05,0.02,0.16,0.04,0.29c0.01,0.07,0.02,0.18,0.03,0.32c0,0.06,0.01,0.13,0.01,0.22
	c0,0.04,0,0.12,0.01,0.32c0,0.16,0,0.24,0,0.32c0,0.04-0.01,0.18-0.03,0.38c-0.02,0.15-0.03,0.33-0.09,0.57
	c-0.05,0.21-0.1,0.36-0.14,0.49c-0.05,0.16-0.09,0.26-0.15,0.4c-0.01,0.03-0.07,0.15-0.17,0.3c-0.04,0.06-0.11,0.17-0.21,0.29
	c-0.1,0.11-0.18,0.19-0.2,0.21c-0.05,0.04-0.13,0.11-0.25,0.19c-0.02,0.01-0.07,0.05-0.14,0.08c-0.1,0.05-0.18,0.09-0.22,0.1
	c-0.04,0.02-0.16,0.06-0.35,0.1c-0.16,0.04-0.28,0.05-0.48,0.06c-0.22,0.02-0.39,0.02-0.46,0.03c-0.19,0-0.38,0-0.38,0
	c-0.08,0-0.13,0-0.21,0c-0.03,0-0.11,0-0.26,0.02c-0.15,0.01-0.22,0.02-0.32,0.03c-0.14,0.02-0.25,0.04-0.39,0.1
	c-0.04,0.02-0.11,0.05-0.19,0.1c-0.23,0.14-0.36,0.32-0.39,0.36c-0.17,0.24-0.22,0.48-0.24,0.59c-0.02,0.14-0.02,0.25-0.02,0.45
	c0,0.18,0.01,0.23,0.01,0.42c0,0.17,0,0.27-0.02,0.39c-0.02,0.1-0.06,0.36-0.23,0.62c-0.03,0.05-0.13,0.19-0.29,0.32
	c-0.34,0.28-0.66,0.25-1.21,0.39c-0.19,0.05-0.55,0.14-0.93,0.34c-0.54,0.29-0.87,0.66-1.08,0.9c-0.3,0.35-0.49,0.68-0.61,0.91
	c-0.15,0.28-0.39,0.77-0.44,1.42c-0.02,0.27-0.04,0.56,0.08,0.91c0.03,0.1,0.15,0.44,0.46,0.75c0.06,0.06,0.18,0.15,0.4,0.32
	c0.48,0.36,0.51,0.34,0.64,0.49c0.19,0.21,0.3,0.44,0.35,0.58c0.05,0.12,0.07,0.21,0.08,0.25c0.03,0.15,0.08,0.45-0.05,0.97
	c-0.05,0.19-0.08,0.24-0.33,0.86c-0.16,0.41-0.25,0.61-0.29,0.74c-0.23,0.62-0.35,1.12-0.39,1.29c-0.04,0.18-0.11,0.48-0.15,0.85
	c-0.08,0.65-0.03,1.14-0.03,1.48c-0.01,1.42-0.01,2.13-0.02,2.31c-0.07,1.01-0.26,1.77-0.43,2.44c-0.16,0.65-0.39,1.4-0.7,2.22
	c0,0.13-0.01,0.31-0.02,0.52c-0.02,0.48-0.04,0.87-0.05,1.1c-0.02,0.37-0.03,0.65-0.04,0.76c0,0.08-0.02,0.29-0.03,0.56
	c-0.01,0.08-0.01,0.19-0.02,0.31c-0.01,0.19-0.03,0.46-0.06,0.78c-0.03,0.36-0.06,0.68-0.08,0.85c-0.01,0.15-0.04,0.45-0.08,0.84
	c-0.03,0.27-0.08,0.78-0.16,1.42c-0.04,0.33-0.09,0.72-0.15,1.16c0.04-0.18,0.43-1.83,0.8-2.85c0.04-0.11,0.16-0.44,0.35-0.84
	c0.19-0.41,0.33-0.62,0.42-0.76c0.12-0.18,0.2-0.29,0.33-0.42c0.12-0.12,0.35-0.34,0.7-0.43c0.08-0.02,0.08-0.01,0.23-0.05
	c0.11-0.03,0.28-0.07,0.49-0.15c0.06-0.03,0.18-0.07,0.31-0.14c0.15-0.08,0.38-0.22,0.6-0.42c0.3-0.27,0.49-0.55,0.58-0.68
	c0.29-0.43,0.31-0.43,0.39-0.52C149.01,556.38,149.79,556.29,150.6,556.2z"/>
<path class="st29" d="M135.06,597.24c0.91-0.92,2.26-2.35,3.79-4.19c1.43-1.72,1.71-2.23,3.38-4.33c2.06-2.59,3.76-4.49,4.78-5.63
	c1.89-2.11,3.35-3.6,4.83-5.12c2.38-2.43,4.24-4.22,5.46-5.38c1.53-1.47,3.41-3.23,5.59-5.2c1.13-2.73,1.79-5.04,2.18-6.7
	c0.66-2.79,0.68-4.1-0.03-4.64c-0.33-0.26-0.73-0.28-1.09-0.26c-2.48,0.11-4.66,2.06-5.48,2.82c-1.67,1.53-3.74,3.58-5.98,6.2
	c-0.51,1.43-1.12,3.1-1.87,4.94c-0.4,0.99-1.01,2.45-1.79,4.2c-0.6,1.34-1.58,3.44-2.89,5.97c-0.66,1.28-1.78,3.38-3.28,5.92
	c-0.18,0.3-2.07,3.49-4.29,6.75c-0.71,1.05-1.41,2.03-1.49,2.13C136.21,595.69,135.59,596.53,135.06,597.24z"/>
<path class="st30" d="M152.49,564.82c1.24-3.51,2.4-7.31,3.4-11.4c0.33-1.36,0.63-2.69,0.9-4c0.24,0.02,0.53,0.04,0.87,0.05
	c0.18,0.01,0.49,0.02,0.89,0.02c0.23,0,0.61,0,1.12-0.04c0.2-0.01,0.51-0.04,0.92-0.1c0.2-0.03,0.53-0.08,0.96-0.17
	c0.51-0.12,0.89-0.24,1.02-0.29c0.21-0.07,0.38-0.14,0.47-0.17c0.07-0.03,0.28-0.11,0.56-0.25c0.22-0.1,0.38-0.19,0.56-0.29
	c0.16-0.08,0.34-0.18,0.57-0.32c0.21-0.12,0.49-0.29,0.83-0.54c0.24-0.18,0.41-0.33,0.58-0.47c0.43-0.38,0.48-0.47,0.94-0.88
	c0.17-0.15,0.38-0.34,0.68-0.57c0.39-0.3,0.7-0.49,0.89-0.61c0.37-0.23,0.66-0.39,0.87-0.5c0.07-0.04,0.37-0.2,0.79-0.4
	c0.33-0.15,0.58-0.26,0.64-0.29c0.13-0.05,0.08-0.03,0.68-0.28c0.28-0.11,0.42-0.17,0.59-0.25c0.18-0.08,0.27-0.12,0.34-0.14
	c0.19-0.08,0.55-0.25,0.96-0.53c0.07-0.05,0.31-0.21,0.59-0.47c0.24-0.22,0.4-0.4,0.63-0.66c0.2-0.23,0.39-0.45,0.61-0.77
	c0.1-0.15,0.21-0.3,0.32-0.53c0.1-0.2,0.21-0.42,0.28-0.74c0.03-0.14,0.06-0.3,0.04-0.52c-0.01-0.17-0.05-0.3-0.09-0.39
	c1.91,0.6,2.56,0.38,2.81,0.07c0.4-0.51-0.25-1.25,0.17-2.23c0.3-0.7,1.12-1.36,1.91-1.34c1.23,0.03,1.74,1.66,2.64,1.44
	c0.34-0.08,0.3-0.32,1.08-0.91c0.6-0.45,0.9-0.68,1.28-0.75c1.02-0.2,1.4,0.86,2.91,1.05c0.86,0.1,0.92-0.22,1.61-0.06
	c1.36,0.31,2.5,1.91,2.16,2.71c-0.32,0.75-1.74,0.4-2.02,1.19c-0.22,0.62,0.61,1,0.64,2.34c0.02,0.61-0.14,0.87,0.07,1.2
	c0.32,0.49,1.04,0.44,1.46,0.52c1.62,0.33,1.68,3.18,3.25,6.33c1.68,3.37,3.55,4.02,3.17,5.91c-0.11,0.57-0.51,1.67-1.44,2.44
	c-0.64,0.53-1.18,0.61-2.18,1.46c-0.46,0.39-1.19,1.01-1.05,1.32c0.16,0.35,1.2-0.18,2.65,0.2c0.4,0.11,1.43,0.38,2.02,1.24
	c0.61,0.88,0.48,2,0.36,3.1c-0.16,1.41-0.55,1.95-0.2,2.32c0.37,0.39,1.25,0.24,1.99,0.13c0.86-0.14,1.04-0.35,1.31-0.21
	c0.63,0.33,0.79,2.05,0.03,2.78c-0.59,0.57-1.21,0.02-2.62,0.55c-1.18,0.44-1.36,1.05-2.11,1.02c-0.9-0.03-1.25-0.92-1.82-1.3
	c-2.77-1.83-12.01,7.32-12.98,6.44c-0.39-0.35,0.96-1.92,0.24-3.39c-0.46-0.94-1.3-0.94-1.39-1.61c-0.15-1.2,2.46-1.72,2.65-3.22
	c0.17-1.28-1.45-3.02-3.25-3.42c-3.1-0.69-6.21,2.72-7.01,1.91c-0.41-0.42,0.36-1.38-0.18-2.06c-0.5-0.63-1.67-0.48-2.89-0.31
	c-1.38,0.18-2.54,0.34-3.49,1.22c-0.48,0.45-0.82,1.2-1.51,2.71c-0.9,1.99-0.83,2.39-1.4,2.76c-1.09,0.7-2.19-0.16-2.83,0.52
	c-0.5,0.54,0.07,1.19-0.08,2.84c-0.05,0.53-0.28,2.35-1.57,3.66c-0.81,0.82-1.02,0.42-1.7,1.17c-1.26,1.4-0.65,2.96-1.96,3.93
	c-0.54,0.4-0.71,0.27-1.08,0.62c-0.96,0.91-0.69,2.88,0.04,5.05c-3.52,1.86-7.21,3.95-11,6.31c-3.31,2.05-6.41,4.12-9.28,6.15
	c1.15-1.56,2.56-3.45,4.19-5.57c2.62-3.41,4.77-6.08,6-7.59c1.5-1.84,4.11-5.01,7.47-8.88c2.36-2.71,4.4-4.97,5.94-6.66
	c1.6-1.75,3.62-3.92,5.98-6.36c1.65-1.72,3.72-3.83,6.14-6.23c2.01-1.98,3.84-3.75,5.44-5.26c-0.7,0.58-1.36,1.14-1.98,1.66
	c-0.45,0.38-1.13,0.96-1.95,1.66c-0.34,0.29-0.75,0.64-1.21,1.04c-0.34,0.29-0.75,0.64-1.21,1.04c-0.38,0.33-0.84,0.73-1.37,1.2
	c-0.25,0.22-0.79,0.69-1.48,1.3c-0.17,0.15-0.67,0.59-1.32,1.17c-0.46,0.41-0.81,0.73-0.99,0.89c-0.29,0.26-0.63,0.56-1.01,0.91
	c-0.32,0.29-0.68,0.62-1.08,0.98c0.34-0.82,0.6-1.53,0.81-2.1c0.14-0.4,0.34-0.94,0.57-1.68c0.16-0.51,0.28-0.93,0.35-1.18
	c0.05-0.18,0.14-0.53,0.32-1.21c0.14-0.53,0.18-0.69,0.23-0.93c0.06-0.25,0.09-0.44,0.15-0.74c0.06-0.32,0.1-0.54,0.15-0.83
	c0.04-0.3,0.06-0.49,0.07-0.58c0.01-0.14,0.03-0.29,0.03-0.49c0-0.15,0-0.29-0.01-0.47c-0.02-0.23-0.05-0.44-0.16-0.68
	c-0.03-0.06-0.15-0.29-0.35-0.46c-0.12-0.1-0.41-0.29-1.22-0.25c-0.65,0.03-1.17,0.19-1.55,0.34c-0.95,0.35-1.61,0.77-1.75,0.87
	c-0.68,0.44-1.61,1.12-3.62,3.09c-0.98,0.95-1.73,1.75-2.23,2.27C153.79,563.33,153.05,564.17,152.49,564.82z"/>
<path class="st31" d="M152.62,599.08c5.55-1.85,6.31-1.68,7.26-1.99c0.51-0.17,0.68-0.32,0.98-0.45c1.25-0.55,2.64-0.12,3.2,0.05
	c1.02,0.32,2.1,0.65,2.39,1.48c0.48,1.41-1.76,3.08-1.31,3.69c0.34,0.45,1.48-0.49,2.76-0.05c1.78,0.62,2.36,3.39,2.46,3.84
	c0.49,2.3-0.37,3.52,0.37,4.13c0.93,0.77,3.12-0.45,3.53-0.67c2.91-1.62,2.91-3.9,4.87-4.21c1.71-0.27,2.73,1.3,3.78,0.66
	c0.99-0.6,0.26-2.1,1.27-3.06c1.51-1.45,4.67,0.49,5.56-0.72c0.76-1.03-1.04-3.12-0.01-4.34c0.4-0.47,0.83-0.36,1.11-0.89
	c0.52-0.95-0.59-1.84-0.34-2.71c0.41-1.47,4-0.3,6.9-2.34c2.22-1.56,1.33-3.1,4.21-5.23c0.89-0.66,1.8-1.12,2.7-2.36
	c0.46-0.64,1.16-1.62,1.07-2.92c-0.06-0.89-0.51-2.18-1.38-2.42c-0.78-0.22-1.17,0.69-2.62,1.43c-1.77,0.91-2.5,0.24-5.2,0.91
	c-2.47,0.61-2.63,1.35-3.69,1.3c-1.41-0.06-3.3-1.45-5.41-7.28c-0.03,0.02-0.19,0.14-0.22,0.16c-0.17,0.12-0.25,0.18-0.28,0.2
	c-0.23,0.17-0.24,0.17-0.44,0.31c-0.2,0.14-0.19,0.14-0.42,0.31c-0.13,0.09-0.22,0.16-0.41,0.28c-0.14,0.09-0.27,0.18-0.44,0.3
	c-0.1,0.06-0.19,0.13-0.33,0.21c-0.26,0.17-0.43,0.26-0.47,0.28c-0.07,0.04-0.16,0.09-0.27,0.14c-0.12,0.06-0.2,0.09-0.27,0.12
	c-0.07,0.03-0.12,0.04-0.17,0.05c-0.07,0.02-0.13,0.03-0.2,0.02c-0.05,0-0.11-0.01-0.16-0.06c-0.03-0.03-0.04-0.06-0.05-0.08
	c-0.03-0.07-0.02-0.13-0.02-0.16c0.02-0.15,0.07-0.31,0.1-0.38c0.06-0.16,0.03-0.09,0.1-0.31c0.05-0.16,0.1-0.28,0.11-0.31
	c0.06-0.17,0.19-0.54,0.22-1c0.01-0.16,0.02-0.35-0.02-0.6c-0.02-0.12-0.08-0.39-0.25-0.69c-0.04-0.07-0.11-0.2-0.23-0.34
	c-0.14-0.16-0.29-0.27-0.42-0.37c-0.16-0.12-0.21-0.14-0.35-0.26c-0.11-0.1-0.16-0.14-0.21-0.22c-0.15-0.23-0.12-0.47-0.11-0.51
	c0.02-0.16,0.09-0.27,0.17-0.4c0.12-0.19,0.25-0.3,0.46-0.48c0.17-0.14,0.31-0.24,0.52-0.39c0.18-0.13,0.23-0.15,0.38-0.27
	c0.08-0.06,0.22-0.16,0.36-0.29c0.18-0.16,0.32-0.29,0.45-0.48c0.1-0.14,0.25-0.36,0.31-0.67c0.04-0.26,0-0.46-0.03-0.62
	c-0.05-0.26-0.14-0.44-0.21-0.58c-0.14-0.29-0.29-0.48-0.44-0.66c-0.13-0.16-0.35-0.44-0.71-0.72c-0.07-0.05-0.33-0.26-0.74-0.47
	c-0.25-0.13-0.72-0.37-1.36-0.47c-0.79-0.13-1.41,0.01-1.87,0.12c-0.52,0.12-0.89,0.28-1.3,0.46c-0.69,0.3-1.37,0.69-1.43,0.72
	c-0.3,0.17-0.61,0.32-0.91,0.48c0,0-0.12,0.07-0.42,0.18c0,0-0.27,0.11-0.47,0.11c-0.05,0-0.1-0.01-0.11-0.01
	c-0.02,0-0.07-0.01-0.11-0.02c-0.1-0.03-0.16-0.12-0.18-0.14c-0.06-0.08-0.08-0.17-0.08-0.22c-0.01-0.06-0.01-0.11,0-0.21
	c0.01-0.08,0.02-0.15,0.03-0.23c0.03-0.16,0.04-0.2,0.06-0.3c0.02-0.12,0.05-0.28,0.04-0.47c0-0.1-0.01-0.2-0.06-0.33
	c-0.01-0.04-0.06-0.14-0.14-0.24c-0.05-0.06-0.1-0.11-0.14-0.14c-0.04-0.04-0.09-0.08-0.16-0.12c-0.09-0.05-0.16-0.07-0.3-0.11
	c-0.1-0.03-0.19-0.04-0.27-0.06c-0.17-0.03-0.31-0.03-0.39-0.04c-0.17,0-0.41,0-0.96,0.06c-0.18,0.02-0.33,0.04-0.61,0.08
	c-0.3,0.04-0.49,0.06-0.7,0.1c-0.34,0.05-0.59,0.09-0.87,0.16c-0.4,0.1-1,0.24-1.6,0.67c-0.09,0.06-0.23,0.16-0.39,0.31
	c-0.31,0.3-0.48,0.59-0.69,0.97c-0.07,0.14-0.23,0.43-0.57,1.19c-0.06,0.13-0.42,0.92-0.72,1.64c-0.09,0.21-0.13,0.32-0.15,0.38
	c-0.16,0.41-0.18,0.5-0.28,0.7c-0.09,0.17-0.16,0.3-0.3,0.43c-0.14,0.13-0.28,0.2-0.37,0.25c-0.05,0.02-0.22,0.11-0.47,0.16
	c-0.27,0.05-0.49,0.04-0.77,0.03c-0.2-0.01-0.24-0.03-0.51-0.04c-0.3-0.01-0.39,0-0.49,0.03c-0.06,0.02-0.21,0.07-0.35,0.2
	c-0.08,0.07-0.13,0.14-0.14,0.16c-0.01,0.01-0.05,0.08-0.09,0.17c-0.07,0.2-0.05,0.4-0.04,0.44c0.05,0.4,0.12,0.92,0.13,0.95
	c0.06,0.45,0.03,0.8,0.01,1.13c-0.01,0.1-0.04,0.42-0.13,0.84c-0.12,0.56-0.28,0.97-0.32,1.07c-0.02,0.06-0.17,0.43-0.41,0.85
	c-0.11,0.18-0.19,0.3-0.22,0.35c-0.02,0.03-0.13,0.18-0.28,0.36c-0.11,0.13-0.2,0.23-0.34,0.36c0,0-0.29,0.26-0.58,0.4
	c-0.07,0.04-0.14,0.06-0.14,0.06c-0.06,0.03-0.08,0.03-0.14,0.05c-0.07,0.03-0.12,0.06-0.17,0.08c-0.05,0.03-0.12,0.07-0.2,0.12
	c0,0-0.1,0.07-0.2,0.17c-0.58,0.6-0.92,1.56-0.92,1.56c-0.29,0.8-0.49,1.77-0.77,2.12c-0.16,0.2-0.34,0.34-0.34,0.34
	c-0.1,0.08-0.2,0.14-0.26,0.18c-0.1,0.06-0.16,0.1-0.25,0.14c-0.07,0.03-0.09,0.03-0.22,0.09c-0.03,0.01-0.12,0.05-0.17,0.08
	c-0.16,0.08-0.26,0.19-0.34,0.28c-0.03,0.03-0.15,0.16-0.26,0.36c-0.11,0.21-0.16,0.38-0.2,0.52c0,0-0.05,0.2-0.07,0.41
	c-0.11,0.99,0.16,2.2,0.16,2.2c0.09,0.39,0.23,0.91,0.47,1.49c1.56-0.8,3-1.5,4.3-2.09c0.99-0.46,2.64-1.2,4.7-2.04
	c0.66-0.27,1.61-0.65,2.78-1.1c0.57-0.22,1.42-0.53,2.46-0.9c0.39-0.14,0.93-0.33,1.55-0.54c0.47-0.16,1.14-0.38,1.95-0.64
	c0.45-0.14,1.05-0.33,1.77-0.55c0.49-0.15,0.92-0.28,1.28-0.38c-0.5,0.27-1.16,0.64-1.95,1.07c-1.2,0.66-2.93,1.63-5.02,2.81
	c-1.82,1.03-3.26,1.86-4.07,2.32c-1.69,0.98-2.96,1.72-3.26,1.89c-0.81,0.48-2.11,1.24-3.71,2.2c-1.36,0.81-2.36,1.42-4.36,2.63
	c-1.81,1.1-2.73,1.66-3.7,2.26c-1.71,1.06-2.56,1.59-3.64,2.31c-0.75,0.5-1.95,1.32-3.38,2.39c-1.08,0.8-2.24,1.7-3.45,2.71
	C142.59,602.82,147.3,600.86,152.62,599.08z"/>
<radialGradient id="SVGID_4_" cx="131.0555" cy="813.5059" r="153.3591" gradientUnits="userSpaceOnUse">
	<stop  offset="0" style="stop-color:#545454"/>
	<stop  offset="0.5023" style="stop-color:#2B2B2B"/>
</radialGradient>
<circle class="st32" cx="131.06" cy="813.51" r="76.68"/>
<g>
	<path class="st33" d="M154.69,846.9c-0.16,0.57-0.5,1.42-1.26,2.14c-0.74,0.7-1.55,0.95-1.92,1.05
		c-6.74,1.96-10.71,2.12-10.71,2.12c-2.71,0.11-11.88,0.43-18.93-0.34c-1.26-0.14-2.92-0.36-4.89-0.79
		c-1.74-0.38-2.85-0.73-3.86-1.06c-3.01-0.96-3.7-1.51-4.02-1.8c-0.94-0.84-1.42-1.83-1.68-2.51c1.4,0.48,3.3,1.1,5.59,1.7
		c7.8,2.06,14.42,2.5,18.57,2.57c4.05,0.07,10.62-0.13,18.42-1.88C151.92,847.68,153.52,847.24,154.69,846.9z"/>
	<path class="st34" d="M197.66,804.1c-0.91-3.48-2.23-5.65-4.41-9.24c0,0-1.16-1.91-3.46-3.98c-0.37-0.34-0.97-0.83-1.86-1.1
		c-0.68-0.21-1.26-0.19-1.6-0.17c-2.68,0.13-5.34,0.89-5.34,0.89c-1.93,0.55-2.99,0.85-4.54,1.43c-4.39,1.63-7.96,3.7-8.82,4.31
		c-0.06,0.04-0.27,0.2-0.59,0.36c-0.59,0.3-1.26,0.48-1.75,0.5c-0.72,0.02-1.23-0.32-2.16-0.95c-3.68-2.49-4.07-2.76-4.95-3.5
		c-0.55-0.46-0.99-0.85-1.27-1.1c-1.4,0.53-3.44,1.22-5.96,1.75c-1.47,0.31-3.73,0.7-9.5,0.86c-1.44,0.04-5.83,0.14-12.52-0.15
		c-4.17-0.18-6.8-0.41-9.47-0.65c-4.19-0.37-6.95-0.73-10.27-1.76c-1.08-0.34-1.96-0.67-2.58-0.91c-0.16,0.26-0.41,0.64-0.78,1.04
		c-0.77,0.85-1.55,1.3-1.75,1.42c-1.76,1.04-4.29,4.01-5.07,4.92c-0.94,1.1-2.98,3.66-4.43,7c-2.08,4.76-1.99,8.88-1.9,13.6
		c0.09,4.67,0.18,8.97,2.53,13.89c1.71,3.57,3.9,6,5.1,7.3c2.58,2.8,5.18,4.68,7.1,5.87c5.57,1.92,13.89,4.09,24.16,4.27
		c9.66,0.17,17.62-1.49,23.11-3.08c1.56-1.05,3.26-2.31,5.01-3.8c1.75-1.49,3.26-2.97,4.54-4.35c1.17-0.07,2.7-0.22,4.48-0.52
		c1.42-0.24,4.99-0.92,9.39-2.7c2.77-1.13,6.28-2.55,10.1-5.65c1.31-1.06,3.77-3.09,6.08-6.49c1.33-1.96,3.25-4.86,4.02-9.13
		C199.12,809.82,198.23,806.29,197.66,804.1z M194.37,813.68c-0.63,3.67-2.27,6.2-3.36,7.87c-0.61,0.94-1.87,2.72-3.86,4.6
		c-3.1,2.92-5.98,4.17-9.51,5.7c-0.86,0.37-2.06,0.86-3.69,1.01c-1.03,0.09-3.72,0.33-4.59-1.07c-0.34-0.54-0.23-1.43,0-3.17
		c0.19-1.43,0.45-2.48,0.49-2.64c0.56-2.26,0.6-4.21,0.66-7.17c0.04-2.16,0.08-3.84-0.27-6.07c-0.19-1.24-0.4-2.54-0.91-4.21
		c-0.36-1.17-0.55-1.47-0.67-2.37c-0.1-0.67-0.28-2.06,0.29-3.65c0.38-1.07,0.94-1.76,1.29-2.2c0.55-0.67,1.33-1.44,3.46-2.68
		c2.91-1.7,5.31-2.52,6.59-2.91c2.29-0.69,3.26-0.7,3.91-0.65c1.62,0.13,2.75,0.73,3.07,0.9c1.15,0.64,1.9,1.47,2.65,2.49
		c1,1.35,2.53,3.42,3.58,6.81C194.1,806.26,195.08,809.54,194.37,813.68z"/>
	<path class="st35" d="M96.39,834.72c-1.25-0.13-3.07-0.46-5.11-1.31c-1.17-0.49-4.94-2.12-7.65-6.03c-1.32-1.91-1.9-3.63-2.8-6.36
		c-0.7-2.11-1.06-3.84-1.32-5.12c-0.38-1.87-0.58-3.43-0.97-6.48c-0.5-4-0.42-4.18-0.78-6.29c-0.53-3.13-1.07-4.8-1.48-5.9
		c-0.44-1.19-1.08-2.67-2.24-4.09c-0.43-0.53-1.23-1.42-2.34-1.88c-0.61-0.26-1.26-0.36-1.29-0.36c-0.3-0.04-0.69-0.1-1.19-0.04
		c-0.65,0.08-0.72,0.26-1.32,0.31c-0.42,0.03-0.84,0.06-1.1-0.2c-0.32-0.32-0.31-0.96-0.05-1.36c0.25-0.39,0.65-0.42,1.44-0.73
		c0.08-0.03,0.59-0.3,1.61-0.83c1.66-0.87,2.63-1.42,4.27-2.22c0.34-0.17,0.92-0.45,1.74-0.63c0.46-0.1,0.95-0.21,1.54-0.14
		c0.75,0.1,1.29,0.45,1.68,0.73c2.49,1.78,4.09,4.04,4.09,4.04c0.43,0.61,0.49,0.75,1.85,3.02c0,0,1.16,1.94,3.97,6.33
		c0.46,0.72,1.08,1.68,2.14,2.71c1.18,1.16,1.96,1.49,2.56,1.63c0.69,0.16,1.29,0.12,1.67,0.06c-1.34,2.58-1.92,4.8-2.2,6.32
		c-0.43,2.35-0.45,4.7-0.46,5.24c0,0.54,0,1.64,0.02,2.63c0.01,0.4,0.02,1.47,0.05,2.41c0.07,2.13,0.11,3.47,0.36,5.19
		c0.13,0.91,0.34,2.31,0.91,4.09c0.18,0.58,0.55,1.67,1.17,2.98C95.58,833.32,96.01,834.09,96.39,834.72z"/>
	<path class="st36" d="M148.78,785.02c1.42,0.18,2.59,0.44,3.45,0.66c0.43,0.11,1.77,0.46,3.3,1.26c0.71,0.36,1.17,0.68,1.44,1.23
		c0.07,0.15,0.38,0.76,0.21,1.44c-0.1,0.4-0.29,0.53-0.36,0.99c-0.06,0.38,0.01,0.72,0.08,0.94c-1.56,0.6-2.95,1.01-4.06,1.3
		c-0.6,0.16-1.54,0.4-2.81,0.63c-1.57,0.28-2.79,0.37-4.08,0.47c-1.02,0.08-1.8,0.11-2.78,0.15c-0.48,0.02-1.48,0.06-2.88,0.09
		c-0.45,0.01-2.37,0.04-5.11,0.01c-0.82-0.01-3.04-0.04-5.93-0.17c-2.25-0.1-4.1-0.21-5.34-0.3c-0.61-0.04-2.97-0.21-6.04-0.51
		c-1.77-0.18-2.56-0.28-3.38-0.41c-0.77-0.12-1.95-0.31-3.43-0.68c-1.17-0.29-2.69-0.74-4.44-1.43c0.06-0.19,0.11-0.46,0.04-0.77
		c-0.1-0.44-0.36-0.59-0.53-0.95c-0.28-0.59-0.07-1.24-0.02-1.43c0.13-0.53,0.54-1.11,1.9-1.84c0.52-0.28,1.98-1.04,4.91-1.41
		c1.1-0.14,2.02-0.18,2.65-0.18c-1.43,0.3-2.52,0.77-3.23,1.14c-1.26,0.66-1.76,1.21-1.96,1.45c-0.4,0.48-0.64,0.96-0.77,1.29
		c0.78,0.19,1.87,0.44,3.17,0.71c1.46,0.3,6.39,1.28,13.29,1.77c3.31,0.23,7.36,0.18,15.44,0.06c2.05-0.03,4.83-0.08,8.44-0.65
		c1.65-0.26,3.01-0.55,3.93-0.77c0.04-0.25,0.07-0.62-0.07-1c-0.28-0.78-1.03-1.11-2.81-1.97
		C150.5,785.89,149.73,785.51,148.78,785.02z"/>
	<path class="st37" d="M153.88,789.1c0.01-0.06,0.02-0.15,0.03-0.26c0.01-0.17,0.02-0.56-0.2-0.96c-0.15-0.27-0.34-0.43-0.48-0.55
		c-0.17-0.14-0.32-0.22-0.39-0.27c-0.78-0.43-1.38-0.71-1.38-0.71c-0.14-0.07-0.55-0.27-1.36-0.67c-0.57-0.28-1.03-0.51-1.32-0.66
		c-0.51-0.16-1.24-0.37-2.13-0.62c-1.65-0.45-2.92-0.74-4.23-1.04c-0.84-0.19-3.83-0.86-4.35-0.98c-0.14-0.03-0.41-0.1-0.68-0.16
		c-0.09-0.02-0.15-0.04-0.22-0.05c-0.24-0.06-0.36-0.09-0.38-0.1c-0.22-0.08-0.39-0.33-0.42-0.55c-0.04-0.29,0.19-0.53,0.39-0.73
		c0.82-0.85,1.11-1.11,1.3-1.32c0.56-0.62,0.86-1.54,0.79-2.37c-0.09-1.08-0.8-1.79-1.07-2.06c-0.84-0.84-1.8-1.06-3.08-1.34
		c-2.61-0.56-4.63-0.17-5.18-0.05c-1.2,0.26-2.23,0.49-3.14,1.38c-0.35,0.34-1.07,1.04-1.13,2.08c-0.08,1.32,0.92,2.47,1.36,2.71
		c0.25,0.13,0.35,0.22,0.55,0.4c0.19,0.16,0.26,0.26,0.31,0.37c0.03,0.06,0.1,0.24,0.06,0.46c-0.05,0.34-0.32,0.53-0.42,0.6
		c-0.14,0.09-0.26,0.11-0.76,0.18c-0.45,0.06-0.67,0.09-0.75,0.09c-0.26,0.02-0.69,0.08-1.54,0.21c-0.76,0.11-1.44,0.25-2.39,0.47
		c-2.45,0.56-5.71,1.4-6.11,1.5c-0.62,0.13-1.14,0.28-1.55,0.42c-0.54,0.19-0.95,0.37-1.13,0.45c-0.2,0.09-0.53,0.24-0.89,0.46
		c-0.49,0.29-1.14,0.67-1.7,1.38c-0.19,0.24-0.46,0.63-0.68,1.17c1.04,0.26,2.36,0.56,3.89,0.87c1.57,0.31,2.75,0.49,3.65,0.63
		c2.27,0.35,4.24,0.57,5.79,0.73c1.23,0.12,2.69,0.26,4.64,0.35c1.44,0.07,2.43,0.07,4.39,0.08c1.54,0.01,1.18-0.01,6.33-0.06
		c0.88-0.01,2-0.02,3.54-0.05c1.02-0.02,1.53-0.03,2.09-0.06c2.35-0.09,4.3-0.34,5.41-0.5C150.6,789.78,152.14,789.51,153.88,789.1z
		"/>
</g>
</svg>
